ISO-10303-21;
HEADER;
/* Generated by software containing ST-Developer
 * from STEP Tools, Inc. (www.steptools.com) 
 */

FILE_DESCRIPTION(
/* description */ (''),
/* implementation_level */ '2;1');

FILE_NAME(
/* name */ 'Aether-winch-model V0.2.f3d.step',
/* time_stamp */ '2026-07-30T11:53:51-05:00',
/* author */ (''),
/* organization */ (''),
/* preprocessor_version */ 'ST-DEVELOPER v20.1',
/* originating_system */ 'Autodesk Translation Framework v15.8.0.0',
/* authorisation */ '');

FILE_SCHEMA (('AUTOMOTIVE_DESIGN { 1 0 10303 214 3 1 1 }'));
ENDSEC;

DATA;
#10=MECHANICAL_DESIGN_GEOMETRIC_PRESENTATION_REPRESENTATION('',(#13,#14),
#1893);
#11=SHAPE_REPRESENTATION_RELATIONSHIP('SRR','None',#1900,#12);
#12=ADVANCED_BREP_SHAPE_REPRESENTATION('',(#15,#16),#1892);
#13=STYLED_ITEM('',(#1910),#15);
#14=STYLED_ITEM('',(#1910),#16);
#15=MANIFOLD_SOLID_BREP('Body1',#1052);
#16=MANIFOLD_SOLID_BREP('Body2',#1053);
#17=CONICAL_SURFACE('',#1075,3.5,1.47112767430373);
#18=CONICAL_SURFACE('',#1079,3.5,1.47112767430373);
#19=CONICAL_SURFACE('',#1121,3.5074375,1.47125609190797);
#20=FACE_BOUND('',#182,.T.);
#21=FACE_BOUND('',#187,.T.);
#22=FACE_BOUND('',#189,.T.);
#23=FACE_BOUND('',#196,.T.);
#24=FACE_BOUND('',#200,.T.);
#25=FACE_BOUND('',#205,.T.);
#26=FACE_BOUND('',#218,.T.);
#27=FACE_BOUND('',#225,.T.);
#28=FACE_BOUND('',#229,.T.);
#29=FACE_BOUND('',#238,.T.);
#30=PLANE('',#1071);
#31=PLANE('',#1072);
#32=PLANE('',#1083);
#33=PLANE('',#1084);
#34=PLANE('',#1088);
#35=PLANE('',#1095);
#36=PLANE('',#1109);
#37=PLANE('',#1123);
#38=PLANE('',#1131);
#39=PLANE('',#1135);
#40=PLANE('',#1136);
#41=PLANE('',#1146);
#42=PLANE('',#1147);
#43=PLANE('',#1152);
#44=PLANE('',#1153);
#45=PLANE('',#1154);
#46=PLANE('',#1157);
#47=PLANE('',#1158);
#48=PLANE('',#1163);
#49=PLANE('',#1164);
#50=PLANE('',#1170);
#51=PLANE('',#1171);
#52=PLANE('',#1173);
#53=PLANE('',#1176);
#54=PLANE('',#1177);
#55=PLANE('',#1182);
#56=PLANE('',#1184);
#57=PLANE('',#1186);
#58=CIRCLE('',#1069,1.5085);
#59=CIRCLE('',#1070,1.5085);
#60=CIRCLE('',#1073,3.);
#61=CIRCLE('',#1074,2.5);
#62=CIRCLE('',#1076,4.);
#63=CIRCLE('',#1078,4.);
#64=CIRCLE('',#1080,3.);
#65=CIRCLE('',#1082,2.5);
#66=CIRCLE('',#1086,2.);
#67=CIRCLE('',#1087,2.);
#68=CIRCLE('',#1090,2.);
#69=CIRCLE('',#1091,2.);
#70=CIRCLE('',#1093,2.);
#71=CIRCLE('',#1094,2.);
#72=CIRCLE('',#1096,8.);
#73=CIRCLE('',#1097,7.2085);
#74=CIRCLE('',#1098,8.);
#75=CIRCLE('',#1099,2.);
#76=CIRCLE('',#1100,7.99975);
#77=CIRCLE('',#1101,7.99975);
#78=CIRCLE('',#1102,7.99975);
#79=CIRCLE('',#1103,7.99975);
#80=CIRCLE('',#1104,2.70850000000002);
#81=CIRCLE('',#1106,8.);
#82=CIRCLE('',#1108,2.);
#83=CIRCLE('',#1110,7.99975);
#84=CIRCLE('',#1111,7.99975);
#85=CIRCLE('',#1112,7.99975);
#86=CIRCLE('',#1113,7.99975);
#87=CIRCLE('',#1114,8.);
#88=CIRCLE('',#1115,7.2085);
#89=CIRCLE('',#1116,2.70850000000002);
#90=CIRCLE('',#1119,4.0085);
#91=CIRCLE('',#1120,4.0085);
#92=CIRCLE('',#1122,3.006375);
#93=CIRCLE('',#1124,2.70850000000002);
#94=CIRCLE('',#1127,2.70850000000002);
#95=CIRCLE('',#1129,2.70850000000002);
#96=CIRCLE('',#1130,2.70850000000002);
#97=CIRCLE('',#1133,8.);
#98=CIRCLE('',#1134,8.);
#99=CIRCLE('',#1138,8.);
#100=CIRCLE('',#1139,8.);
#101=CIRCLE('',#1141,7.2085);
#102=CIRCLE('',#1142,7.2085);
#103=CIRCLE('',#1143,7.2085);
#104=CIRCLE('',#1144,7.2085);
#105=CIRCLE('',#1148,7.99975);
#106=CIRCLE('',#1149,7.99975);
#107=CIRCLE('',#1150,7.99975);
#108=CIRCLE('',#1151,7.99975);
#109=CIRCLE('',#1156,7.99975);
#110=CIRCLE('',#1159,7.99975);
#111=CIRCLE('',#1160,7.99975);
#112=CIRCLE('',#1161,7.99975);
#113=CIRCLE('',#1165,7.99975);
#114=CIRCLE('',#1166,7.99975);
#115=CIRCLE('',#1167,7.99975);
#116=CIRCLE('',#1168,7.99975);
#117=CIRCLE('',#1175,7.99975);
#118=CIRCLE('',#1178,7.99975);
#119=CIRCLE('',#1179,7.99975);
#120=CIRCLE('',#1180,7.99975);
#121=FACE_OUTER_BOUND('',#178,.T.);
#122=FACE_OUTER_BOUND('',#179,.T.);
#123=FACE_OUTER_BOUND('',#180,.T.);
#124=FACE_OUTER_BOUND('',#181,.T.);
#125=FACE_OUTER_BOUND('',#183,.T.);
#126=FACE_OUTER_BOUND('',#184,.T.);
#127=FACE_OUTER_BOUND('',#185,.T.);
#128=FACE_OUTER_BOUND('',#186,.T.);
#129=FACE_OUTER_BOUND('',#188,.T.);
#130=FACE_OUTER_BOUND('',#190,.T.);
#131=FACE_OUTER_BOUND('',#191,.T.);
#132=FACE_OUTER_BOUND('',#192,.T.);
#133=FACE_OUTER_BOUND('',#193,.T.);
#134=FACE_OUTER_BOUND('',#194,.T.);
#135=FACE_OUTER_BOUND('',#195,.T.);
#136=FACE_OUTER_BOUND('',#197,.T.);
#137=FACE_OUTER_BOUND('',#198,.T.);
#138=FACE_OUTER_BOUND('',#199,.T.);
#139=FACE_OUTER_BOUND('',#201,.T.);
#140=FACE_OUTER_BOUND('',#202,.T.);
#141=FACE_OUTER_BOUND('',#203,.T.);
#142=FACE_OUTER_BOUND('',#204,.T.);
#143=FACE_OUTER_BOUND('',#206,.T.);
#144=FACE_OUTER_BOUND('',#207,.T.);
#145=FACE_OUTER_BOUND('',#208,.T.);
#146=FACE_OUTER_BOUND('',#209,.T.);
#147=FACE_OUTER_BOUND('',#210,.T.);
#148=FACE_OUTER_BOUND('',#211,.T.);
#149=FACE_OUTER_BOUND('',#212,.T.);
#150=FACE_OUTER_BOUND('',#213,.T.);
#151=FACE_OUTER_BOUND('',#214,.T.);
#152=FACE_OUTER_BOUND('',#215,.T.);
#153=FACE_OUTER_BOUND('',#216,.T.);
#154=FACE_OUTER_BOUND('',#217,.T.);
#155=FACE_OUTER_BOUND('',#219,.T.);
#156=FACE_OUTER_BOUND('',#220,.T.);
#157=FACE_OUTER_BOUND('',#221,.T.);
#158=FACE_OUTER_BOUND('',#222,.T.);
#159=FACE_OUTER_BOUND('',#223,.T.);
#160=FACE_OUTER_BOUND('',#224,.T.);
#161=FACE_OUTER_BOUND('',#226,.T.);
#162=FACE_OUTER_BOUND('',#227,.T.);
#163=FACE_OUTER_BOUND('',#228,.T.);
#164=FACE_OUTER_BOUND('',#230,.T.);
#165=FACE_OUTER_BOUND('',#231,.T.);
#166=FACE_OUTER_BOUND('',#232,.T.);
#167=FACE_OUTER_BOUND('',#233,.T.);
#168=FACE_OUTER_BOUND('',#234,.T.);
#169=FACE_OUTER_BOUND('',#235,.T.);
#170=FACE_OUTER_BOUND('',#236,.T.);
#171=FACE_OUTER_BOUND('',#237,.T.);
#172=FACE_OUTER_BOUND('',#239,.T.);
#173=FACE_OUTER_BOUND('',#240,.T.);
#174=FACE_OUTER_BOUND('',#241,.T.);
#175=FACE_OUTER_BOUND('',#242,.T.);
#176=FACE_OUTER_BOUND('',#243,.T.);
#177=FACE_OUTER_BOUND('',#244,.T.);
#178=EDGE_LOOP('',(#667,#668,#669,#670,#671,#672,#673));
#179=EDGE_LOOP('',(#674,#675,#676,#677));
#180=EDGE_LOOP('',(#678));
#181=EDGE_LOOP('',(#679));
#182=EDGE_LOOP('',(#680));
#183=EDGE_LOOP('',(#681,#682,#683,#684));
#184=EDGE_LOOP('',(#685,#686,#687,#688));
#185=EDGE_LOOP('',(#689,#690,#691,#692));
#186=EDGE_LOOP('',(#693,#694,#695,#696,#697,#698,#699,#700,#701));
#187=EDGE_LOOP('',(#702,#703));
#188=EDGE_LOOP('',(#704));
#189=EDGE_LOOP('',(#705));
#190=EDGE_LOOP('',(#706));
#191=EDGE_LOOP('',(#707,#708,#709,#710));
#192=EDGE_LOOP('',(#711,#712,#713,#714));
#193=EDGE_LOOP('',(#715,#716,#717,#718));
#194=EDGE_LOOP('',(#719,#720,#721,#722));
#195=EDGE_LOOP('',(#723,#724,#725,#726,#727,#728,#729,#730,#731,#732,#733,
#734,#735,#736,#737));
#196=EDGE_LOOP('',(#738));
#197=EDGE_LOOP('',(#739,#740,#741,#742));
#198=EDGE_LOOP('',(#743,#744,#745,#746));
#199=EDGE_LOOP('',(#747,#748,#749,#750,#751,#752,#753,#754,#755,#756,#757,
#758,#759,#760,#761));
#200=EDGE_LOOP('',(#762));
#201=EDGE_LOOP('',(#763,#764,#765,#766));
#202=EDGE_LOOP('',(#767,#768,#769,#770));
#203=EDGE_LOOP('',(#771,#772,#773,#774));
#204=EDGE_LOOP('',(#775));
#205=EDGE_LOOP('',(#776));
#206=EDGE_LOOP('',(#777,#778,#779,#780));
#207=EDGE_LOOP('',(#781,#782,#783,#784));
#208=EDGE_LOOP('',(#785,#786,#787,#788));
#209=EDGE_LOOP('',(#789,#790,#791,#792,#793,#794));
#210=EDGE_LOOP('',(#795,#796,#797,#798));
#211=EDGE_LOOP('',(#799,#800,#801,#802,#803,#804));
#212=EDGE_LOOP('',(#805,#806,#807,#808));
#213=EDGE_LOOP('',(#809,#810,#811,#812));
#214=EDGE_LOOP('',(#813,#814,#815,#816,#817,#818,#819,#820));
#215=EDGE_LOOP('',(#821,#822,#823,#824));
#216=EDGE_LOOP('',(#825,#826,#827,#828));
#217=EDGE_LOOP('',(#829,#830,#831,#832,#833,#834,#835,#836,#837,#838));
#218=EDGE_LOOP('',(#839));
#219=EDGE_LOOP('',(#840,#841,#842,#843));
#220=EDGE_LOOP('',(#844,#845,#846,#847));
#221=EDGE_LOOP('',(#848,#849,#850,#851));
#222=EDGE_LOOP('',(#852,#853,#854,#855));
#223=EDGE_LOOP('',(#856,#857,#858,#859));
#224=EDGE_LOOP('',(#860,#861,#862,#863,#864,#865,#866,#867));
#225=EDGE_LOOP('',(#868));
#226=EDGE_LOOP('',(#869,#870,#871,#872));
#227=EDGE_LOOP('',(#873,#874,#875,#876));
#228=EDGE_LOOP('',(#877,#878,#879,#880,#881,#882,#883,#884,#885,#886,#887,
#888,#889,#890));
#229=EDGE_LOOP('',(#891));
#230=EDGE_LOOP('',(#892,#893,#894,#895));
#231=EDGE_LOOP('',(#896,#897,#898,#899));
#232=EDGE_LOOP('',(#900,#901,#902,#903));
#233=EDGE_LOOP('',(#904,#905,#906,#907));
#234=EDGE_LOOP('',(#908,#909,#910,#911));
#235=EDGE_LOOP('',(#912,#913,#914,#915,#916,#917,#918,#919,#920,#921,#922,
#923));
#236=EDGE_LOOP('',(#924,#925,#926,#927));
#237=EDGE_LOOP('',(#928,#929,#930,#931,#932,#933,#934,#935));
#238=EDGE_LOOP('',(#936));
#239=EDGE_LOOP('',(#937,#938,#939,#940));
#240=EDGE_LOOP('',(#941,#942,#943,#944));
#241=EDGE_LOOP('',(#945,#946,#947,#948,#949,#950,#951,#952,#953,#954,#955,
#956));
#242=EDGE_LOOP('',(#957,#958,#959,#960));
#243=EDGE_LOOP('',(#961,#962,#963,#964));
#244=EDGE_LOOP('',(#965,#966,#967,#968));
#245=LINE('',#1556,#328);
#246=LINE('',#1598,#329);
#247=LINE('',#1608,#330);
#248=LINE('',#1612,#331);
#249=LINE('',#1616,#332);
#250=LINE('',#1621,#333);
#251=LINE('',#1622,#334);
#252=LINE('',#1630,#335);
#253=LINE('',#1633,#336);
#254=LINE('',#1636,#337);
#255=LINE('',#1638,#338);
#256=LINE('',#1639,#339);
#257=LINE('',#1645,#340);
#258=LINE('',#1648,#341);
#259=LINE('',#1654,#342);
#260=LINE('',#1657,#343);
#261=LINE('',#1668,#344);
#262=LINE('',#1672,#345);
#263=LINE('',#1676,#346);
#264=LINE('',#1684,#347);
#265=LINE('',#1687,#348);
#266=LINE('',#1692,#349);
#267=LINE('',#1696,#350);
#268=LINE('',#1700,#351);
#269=LINE('',#1711,#352);
#270=LINE('',#1716,#353);
#271=LINE('',#1721,#354);
#272=LINE('',#1725,#355);
#273=LINE('',#1730,#356);
#274=LINE('',#1735,#357);
#275=LINE('',#1737,#358);
#276=LINE('',#1739,#359);
#277=LINE('',#1741,#360);
#278=LINE('',#1743,#361);
#279=LINE('',#1744,#362);
#280=LINE('',#1750,#363);
#281=LINE('',#1754,#364);
#282=LINE('',#1756,#365);
#283=LINE('',#1758,#366);
#284=LINE('',#1760,#367);
#285=LINE('',#1762,#368);
#286=LINE('',#1763,#369);
#287=LINE('',#1766,#370);
#288=LINE('',#1768,#371);
#289=LINE('',#1769,#372);
#290=LINE('',#1774,#373);
#291=LINE('',#1783,#374);
#292=LINE('',#1786,#375);
#293=LINE('',#1787,#376);
#294=LINE('',#1793,#377);
#295=LINE('',#1797,#378);
#296=LINE('',#1801,#379);
#297=LINE('',#1806,#380);
#298=LINE('',#1808,#381);
#299=LINE('',#1809,#382);
#300=LINE('',#1812,#383);
#301=LINE('',#1816,#384);
#302=LINE('',#1817,#385);
#303=LINE('',#1824,#386);
#304=LINE('',#1827,#387);
#305=LINE('',#1829,#388);
#306=LINE('',#1831,#389);
#307=LINE('',#1836,#390);
#308=LINE('',#1840,#391);
#309=LINE('',#1844,#392);
#310=LINE('',#1847,#393);
#311=LINE('',#1848,#394);
#312=LINE('',#1850,#395);
#313=LINE('',#1852,#396);
#314=LINE('',#1854,#397);
#315=LINE('',#1856,#398);
#316=LINE('',#1859,#399);
#317=LINE('',#1862,#400);
#318=LINE('',#1865,#401);
#319=LINE('',#1866,#402);
#320=LINE('',#1871,#403);
#321=LINE('',#1875,#404);
#322=LINE('',#1878,#405);
#323=LINE('',#1880,#406);
#324=LINE('',#1881,#407);
#325=LINE('',#1883,#408);
#326=LINE('',#1886,#409);
#327=LINE('',#1888,#410);
#328=VECTOR('',#1191,1.0085);
#329=VECTOR('',#1196,1.5085);
#330=VECTOR('',#1209,3.5);
#331=VECTOR('',#1214,4.);
#332=VECTOR('',#1219,3.5);
#333=VECTOR('',#1226,2.5);
#334=VECTOR('',#1227,2.5);
#335=VECTOR('',#1236,10.);
#336=VECTOR('',#1239,10.);
#337=VECTOR('',#1242,1.);
#338=VECTOR('',#1243,1.);
#339=VECTOR('',#1244,1.);
#340=VECTOR('',#1249,2.);
#341=VECTOR('',#1252,2.);
#342=VECTOR('',#1257,2.);
#343=VECTOR('',#1260,1.);
#344=VECTOR('',#1273,1.);
#345=VECTOR('',#1276,1.);
#346=VECTOR('',#1279,1.);
#347=VECTOR('',#1290,2.);
#348=VECTOR('',#1293,1.);
#349=VECTOR('',#1298,1.);
#350=VECTOR('',#1301,1.);
#351=VECTOR('',#1304,1.);
#352=VECTOR('',#1319,4.0085);
#353=VECTOR('',#1326,3.5074375);
#354=VECTOR('',#1333,2.70850000000002);
#355=VECTOR('',#1338,2.70850000000002);
#356=VECTOR('',#1343,2.70850000000002);
#357=VECTOR('',#1348,1.);
#358=VECTOR('',#1349,1.);
#359=VECTOR('',#1350,1.00085);
#360=VECTOR('',#1351,1.);
#361=VECTOR('',#1352,1.);
#362=VECTOR('',#1353,1.);
#363=VECTOR('',#1360,1.);
#364=VECTOR('',#1363,1.);
#365=VECTOR('',#1364,1.);
#366=VECTOR('',#1365,1.);
#367=VECTOR('',#1366,1.);
#368=VECTOR('',#1367,1.00085);
#369=VECTOR('',#1368,1.);
#370=VECTOR('',#1371,1.);
#371=VECTOR('',#1372,1.);
#372=VECTOR('',#1373,1.);
#373=VECTOR('',#1378,1.);
#374=VECTOR('',#1391,1.);
#375=VECTOR('',#1396,1.);
#376=VECTOR('',#1397,1.);
#377=VECTOR('',#1402,1.);
#378=VECTOR('',#1405,1.);
#379=VECTOR('',#1410,1.);
#380=VECTOR('',#1417,30.004455369784);
#381=VECTOR('',#1418,1.);
#382=VECTOR('',#1419,30.004455369784);
#383=VECTOR('',#1422,30.004455369784);
#384=VECTOR('',#1427,30.004455369784);
#385=VECTOR('',#1428,1.);
#386=VECTOR('',#1435,1.);
#387=VECTOR('',#1438,1.);
#388=VECTOR('',#1441,30.004455369784);
#389=VECTOR('',#1444,30.004455369784);
#390=VECTOR('',#1449,1.);
#391=VECTOR('',#1452,1.);
#392=VECTOR('',#1455,1.);
#393=VECTOR('',#1460,2.00803154401358);
#394=VECTOR('',#1461,2.00803154401358);
#395=VECTOR('',#1464,2.00803154401358);
#396=VECTOR('',#1467,2.00803154401358);
#397=VECTOR('',#1470,2.00803154401358);
#398=VECTOR('',#1473,2.00803154401358);
#399=VECTOR('',#1476,2.00803154401358);
#400=VECTOR('',#1479,2.00803154401358);
#401=VECTOR('',#1482,2.00803154401358);
#402=VECTOR('',#1483,1.);
#403=VECTOR('',#1488,1.);
#404=VECTOR('',#1491,1.);
#405=VECTOR('',#1494,1.);
#406=VECTOR('',#1497,2.00803154401358);
#407=VECTOR('',#1498,2.00803154401358);
#408=VECTOR('',#1501,2.00803154401358);
#409=VECTOR('',#1506,2.00803154401358);
#410=VECTOR('',#1509,2.00803154401358);
#411=B_SPLINE_CURVE_WITH_KNOTS('',3,(#1516,#1517,#1518,#1519,#1520,#1521,
#1522,#1523,#1524,#1525),.UNSPECIFIED.,.F.,.F.,(4,2,2,2,4),(0.,0.384896098401536,
0.769792196803072,1.15428435056985,1.53877650433664),.UNSPECIFIED.);
#412=B_SPLINE_CURVE_WITH_KNOTS('',3,(#1527,#1528,#1529,#1530,#1531,#1532,
#1533,#1534,#1535,#1536),.UNSPECIFIED.,.F.,.F.,(4,2,2,2,4),(4.61632951300991,
5.00082166677669,5.38531382054348,5.77020991894501,6.15510601734655),
 .UNSPECIFIED.);
#413=B_SPLINE_CURVE_WITH_KNOTS('',3,(#1537,#1538,#1539,#1540,#1541,#1542,
#1543,#1544,#1545,#1546,#1547,#1548,#1549,#1550,#1551,#1552,#1553,#1554),
 .UNSPECIFIED.,.F.,.F.,(4,2,2,2,2,2,2,2,4),(1.53877650433664,1.92326865810342,
2.3077608118702,2.69265691027174,3.07755300867327,3.46244910707481,3.84734520547635,
4.23183735924313,4.61632951300991),.UNSPECIFIED.);
#414=B_SPLINE_CURVE_WITH_KNOTS('',3,(#1558,#1559,#1560,#1561,#1562,#1563,
#1564,#1565,#1566,#1567,#1568,#1569,#1570,#1571,#1572,#1573,#1574,#1575,
#1576,#1577,#1578,#1579,#1580,#1581,#1582,#1583),.UNSPECIFIED.,.F.,.F.,
(4,2,2,2,2,2,2,2,2,2,2,2,4),(0.,0.384896098401536,0.769792196803072,1.15428435056985,
1.53877650433664,1.92326865810342,2.3077608118702,2.69265691027174,3.07755300867327,
3.46244910707481,3.84734520547635,4.23183735924313,4.61632951300991),
 .UNSPECIFIED.);
#415=B_SPLINE_CURVE_WITH_KNOTS('',3,(#1584,#1585,#1586,#1587,#1588,#1589,
#1590,#1591,#1592,#1593),.UNSPECIFIED.,.F.,.F.,(4,2,2,2,4),(4.61632951300991,
5.00082166677669,5.38531382054348,5.77020991894501,6.15510601734655),
 .UNSPECIFIED.);
#416=VERTEX_POINT('',#1514);
#417=VERTEX_POINT('',#1515);
#418=VERTEX_POINT('',#1526);
#419=VERTEX_POINT('',#1555);
#420=VERTEX_POINT('',#1557);
#421=VERTEX_POINT('',#1595);
#422=VERTEX_POINT('',#1597);
#423=VERTEX_POINT('',#1602);
#424=VERTEX_POINT('',#1604);
#425=VERTEX_POINT('',#1607);
#426=VERTEX_POINT('',#1611);
#427=VERTEX_POINT('',#1615);
#428=VERTEX_POINT('',#1619);
#429=VERTEX_POINT('',#1626);
#430=VERTEX_POINT('',#1627);
#431=VERTEX_POINT('',#1629);
#432=VERTEX_POINT('',#1631);
#433=VERTEX_POINT('',#1635);
#434=VERTEX_POINT('',#1637);
#435=VERTEX_POINT('',#1641);
#436=VERTEX_POINT('',#1642);
#437=VERTEX_POINT('',#1644);
#438=VERTEX_POINT('',#1646);
#439=VERTEX_POINT('',#1650);
#440=VERTEX_POINT('',#1651);
#441=VERTEX_POINT('',#1653);
#442=VERTEX_POINT('',#1655);
#443=VERTEX_POINT('',#1661);
#444=VERTEX_POINT('',#1663);
#445=VERTEX_POINT('',#1665);
#446=VERTEX_POINT('',#1667);
#447=VERTEX_POINT('',#1669);
#448=VERTEX_POINT('',#1671);
#449=VERTEX_POINT('',#1673);
#450=VERTEX_POINT('',#1675);
#451=VERTEX_POINT('',#1678);
#452=VERTEX_POINT('',#1683);
#453=VERTEX_POINT('',#1685);
#454=VERTEX_POINT('',#1689);
#455=VERTEX_POINT('',#1691);
#456=VERTEX_POINT('',#1693);
#457=VERTEX_POINT('',#1695);
#458=VERTEX_POINT('',#1697);
#459=VERTEX_POINT('',#1699);
#460=VERTEX_POINT('',#1704);
#461=VERTEX_POINT('',#1708);
#462=VERTEX_POINT('',#1710);
#463=VERTEX_POINT('',#1714);
#464=VERTEX_POINT('',#1718);
#465=VERTEX_POINT('',#1723);
#466=VERTEX_POINT('',#1727);
#467=VERTEX_POINT('',#1729);
#468=VERTEX_POINT('',#1733);
#469=VERTEX_POINT('',#1734);
#470=VERTEX_POINT('',#1736);
#471=VERTEX_POINT('',#1738);
#472=VERTEX_POINT('',#1740);
#473=VERTEX_POINT('',#1742);
#474=VERTEX_POINT('',#1746);
#475=VERTEX_POINT('',#1748);
#476=VERTEX_POINT('',#1752);
#477=VERTEX_POINT('',#1753);
#478=VERTEX_POINT('',#1755);
#479=VERTEX_POINT('',#1757);
#480=VERTEX_POINT('',#1759);
#481=VERTEX_POINT('',#1761);
#482=VERTEX_POINT('',#1765);
#483=VERTEX_POINT('',#1767);
#484=VERTEX_POINT('',#1771);
#485=VERTEX_POINT('',#1773);
#486=VERTEX_POINT('',#1777);
#487=VERTEX_POINT('',#1781);
#488=VERTEX_POINT('',#1789);
#489=VERTEX_POINT('',#1790);
#490=VERTEX_POINT('',#1792);
#491=VERTEX_POINT('',#1794);
#492=VERTEX_POINT('',#1796);
#493=VERTEX_POINT('',#1799);
#494=VERTEX_POINT('',#1805);
#495=VERTEX_POINT('',#1807);
#496=VERTEX_POINT('',#1811);
#497=VERTEX_POINT('',#1815);
#498=VERTEX_POINT('',#1819);
#499=VERTEX_POINT('',#1821);
#500=VERTEX_POINT('',#1823);
#501=VERTEX_POINT('',#1825);
#502=VERTEX_POINT('',#1833);
#503=VERTEX_POINT('',#1835);
#504=VERTEX_POINT('',#1837);
#505=VERTEX_POINT('',#1839);
#506=VERTEX_POINT('',#1841);
#507=VERTEX_POINT('',#1843);
#508=VERTEX_POINT('',#1858);
#509=VERTEX_POINT('',#1860);
#510=VERTEX_POINT('',#1864);
#511=VERTEX_POINT('',#1868);
#512=VERTEX_POINT('',#1870);
#513=VERTEX_POINT('',#1872);
#514=VERTEX_POINT('',#1874);
#515=VERTEX_POINT('',#1876);
#516=EDGE_CURVE('',#416,#417,#411,.T.);
#517=EDGE_CURVE('',#418,#416,#412,.T.);
#518=EDGE_CURVE('',#417,#418,#413,.T.);
#519=EDGE_CURVE('',#417,#419,#245,.T.);
#520=EDGE_CURVE('',#420,#419,#414,.T.);
#521=EDGE_CURVE('',#419,#420,#415,.T.);
#522=EDGE_CURVE('',#421,#421,#58,.T.);
#523=EDGE_CURVE('',#421,#422,#246,.T.);
#524=EDGE_CURVE('',#422,#422,#59,.T.);
#525=EDGE_CURVE('',#423,#423,#60,.T.);
#526=EDGE_CURVE('',#424,#424,#61,.T.);
#527=EDGE_CURVE('',#423,#425,#247,.T.);
#528=EDGE_CURVE('',#425,#425,#62,.T.);
#529=EDGE_CURVE('',#425,#426,#248,.T.);
#530=EDGE_CURVE('',#426,#426,#63,.T.);
#531=EDGE_CURVE('',#426,#427,#249,.T.);
#532=EDGE_CURVE('',#427,#427,#64,.T.);
#533=EDGE_CURVE('',#428,#428,#65,.T.);
#534=EDGE_CURVE('',#428,#417,#250,.T.);
#535=EDGE_CURVE('',#418,#424,#251,.T.);
#536=EDGE_CURVE('',#429,#430,#66,.F.);
#537=EDGE_CURVE('',#430,#431,#252,.T.);
#538=EDGE_CURVE('',#431,#432,#67,.F.);
#539=EDGE_CURVE('',#432,#429,#253,.T.);
#540=EDGE_CURVE('',#433,#430,#254,.T.);
#541=EDGE_CURVE('',#434,#433,#255,.T.);
#542=EDGE_CURVE('',#431,#434,#256,.T.);
#543=EDGE_CURVE('',#435,#436,#68,.F.);
#544=EDGE_CURVE('',#436,#437,#257,.T.);
#545=EDGE_CURVE('',#438,#437,#69,.T.);
#546=EDGE_CURVE('',#438,#435,#258,.T.);
#547=EDGE_CURVE('',#439,#440,#70,.T.);
#548=EDGE_CURVE('',#439,#441,#259,.T.);
#549=EDGE_CURVE('',#442,#441,#71,.T.);
#550=EDGE_CURVE('',#440,#442,#260,.T.);
#551=EDGE_CURVE('',#441,#436,#72,.T.);
#552=EDGE_CURVE('',#435,#433,#73,.T.);
#553=EDGE_CURVE('',#429,#443,#74,.T.);
#554=EDGE_CURVE('',#443,#444,#75,.T.);
#555=EDGE_CURVE('',#445,#444,#76,.T.);
#556=EDGE_CURVE('',#446,#445,#261,.T.);
#557=EDGE_CURVE('',#447,#446,#77,.T.);
#558=EDGE_CURVE('',#448,#447,#262,.T.);
#559=EDGE_CURVE('',#449,#448,#78,.T.);
#560=EDGE_CURVE('',#450,#449,#263,.T.);
#561=EDGE_CURVE('',#442,#450,#79,.T.);
#562=EDGE_CURVE('',#451,#451,#80,.T.);
#563=EDGE_CURVE('',#437,#439,#81,.T.);
#564=EDGE_CURVE('',#443,#452,#264,.T.);
#565=EDGE_CURVE('',#453,#452,#82,.T.);
#566=EDGE_CURVE('',#444,#453,#265,.T.);
#567=EDGE_CURVE('',#454,#440,#83,.T.);
#568=EDGE_CURVE('',#455,#454,#266,.T.);
#569=EDGE_CURVE('',#456,#455,#84,.T.);
#570=EDGE_CURVE('',#457,#456,#267,.T.);
#571=EDGE_CURVE('',#458,#457,#85,.T.);
#572=EDGE_CURVE('',#459,#458,#268,.T.);
#573=EDGE_CURVE('',#453,#459,#86,.T.);
#574=EDGE_CURVE('',#452,#432,#87,.T.);
#575=EDGE_CURVE('',#434,#438,#88,.T.);
#576=EDGE_CURVE('',#460,#460,#89,.T.);
#577=EDGE_CURVE('',#461,#461,#90,.T.);
#578=EDGE_CURVE('',#461,#462,#269,.T.);
#579=EDGE_CURVE('',#462,#462,#91,.T.);
#580=EDGE_CURVE('',#463,#463,#92,.T.);
#581=EDGE_CURVE('',#463,#461,#270,.T.);
#582=EDGE_CURVE('',#464,#464,#93,.T.);
#583=EDGE_CURVE('',#460,#464,#271,.T.);
#584=EDGE_CURVE('',#465,#465,#94,.T.);
#585=EDGE_CURVE('',#465,#451,#272,.T.);
#586=EDGE_CURVE('',#466,#466,#95,.T.);
#587=EDGE_CURVE('',#466,#467,#273,.T.);
#588=EDGE_CURVE('',#467,#467,#96,.T.);
#589=EDGE_CURVE('',#468,#469,#274,.T.);
#590=EDGE_CURVE('',#470,#468,#275,.T.);
#591=EDGE_CURVE('',#470,#471,#276,.T.);
#592=EDGE_CURVE('',#471,#472,#277,.T.);
#593=EDGE_CURVE('',#473,#472,#278,.T.);
#594=EDGE_CURVE('',#469,#473,#279,.T.);
#595=EDGE_CURVE('',#469,#474,#97,.T.);
#596=EDGE_CURVE('',#473,#475,#98,.T.);
#597=EDGE_CURVE('',#475,#474,#280,.T.);
#598=EDGE_CURVE('',#476,#477,#281,.T.);
#599=EDGE_CURVE('',#478,#476,#282,.T.);
#600=EDGE_CURVE('',#479,#478,#283,.T.);
#601=EDGE_CURVE('',#479,#480,#284,.T.);
#602=EDGE_CURVE('',#480,#481,#285,.T.);
#603=EDGE_CURVE('',#477,#481,#286,.T.);
#604=EDGE_CURVE('',#474,#482,#287,.T.);
#605=EDGE_CURVE('',#483,#475,#288,.T.);
#606=EDGE_CURVE('',#482,#483,#289,.T.);
#607=EDGE_CURVE('',#484,#476,#99,.T.);
#608=EDGE_CURVE('',#484,#485,#290,.T.);
#609=EDGE_CURVE('',#485,#478,#100,.T.);
#610=EDGE_CURVE('',#482,#486,#101,.T.);
#611=EDGE_CURVE('',#472,#483,#102,.T.);
#612=EDGE_CURVE('',#480,#471,#103,.T.);
#613=EDGE_CURVE('',#487,#479,#104,.T.);
#614=EDGE_CURVE('',#487,#486,#291,.T.);
#615=EDGE_CURVE('',#486,#484,#292,.T.);
#616=EDGE_CURVE('',#485,#487,#293,.T.);
#617=EDGE_CURVE('',#488,#489,#105,.T.);
#618=EDGE_CURVE('',#490,#488,#294,.T.);
#619=EDGE_CURVE('',#491,#490,#106,.T.);
#620=EDGE_CURVE('',#492,#491,#295,.T.);
#621=EDGE_CURVE('',#481,#492,#107,.T.);
#622=EDGE_CURVE('',#493,#470,#108,.T.);
#623=EDGE_CURVE('',#489,#493,#296,.T.);
#624=EDGE_CURVE('',#494,#488,#297,.T.);
#625=EDGE_CURVE('',#494,#495,#298,.T.);
#626=EDGE_CURVE('',#490,#495,#299,.T.);
#627=EDGE_CURVE('',#489,#496,#300,.T.);
#628=EDGE_CURVE('',#496,#494,#109,.T.);
#629=EDGE_CURVE('',#497,#493,#301,.T.);
#630=EDGE_CURVE('',#497,#496,#302,.T.);
#631=EDGE_CURVE('',#495,#498,#110,.T.);
#632=EDGE_CURVE('',#499,#497,#111,.T.);
#633=EDGE_CURVE('',#500,#499,#303,.T.);
#634=EDGE_CURVE('',#501,#500,#112,.T.);
#635=EDGE_CURVE('',#498,#501,#304,.T.);
#636=EDGE_CURVE('',#498,#491,#305,.T.);
#637=EDGE_CURVE('',#492,#501,#306,.T.);
#638=EDGE_CURVE('',#502,#477,#113,.T.);
#639=EDGE_CURVE('',#503,#502,#307,.T.);
#640=EDGE_CURVE('',#504,#503,#114,.T.);
#641=EDGE_CURVE('',#505,#504,#308,.T.);
#642=EDGE_CURVE('',#506,#505,#115,.T.);
#643=EDGE_CURVE('',#507,#506,#309,.T.);
#644=EDGE_CURVE('',#468,#507,#116,.T.);
#645=EDGE_CURVE('',#446,#506,#310,.T.);
#646=EDGE_CURVE('',#505,#447,#311,.T.);
#647=EDGE_CURVE('',#507,#445,#312,.T.);
#648=EDGE_CURVE('',#448,#504,#313,.T.);
#649=EDGE_CURVE('',#503,#449,#314,.T.);
#650=EDGE_CURVE('',#450,#502,#315,.T.);
#651=EDGE_CURVE('',#500,#508,#316,.T.);
#652=EDGE_CURVE('',#508,#509,#117,.T.);
#653=EDGE_CURVE('',#509,#454,#317,.T.);
#654=EDGE_CURVE('',#510,#499,#318,.T.);
#655=EDGE_CURVE('',#510,#508,#319,.T.);
#656=EDGE_CURVE('',#511,#510,#118,.T.);
#657=EDGE_CURVE('',#512,#511,#320,.T.);
#658=EDGE_CURVE('',#513,#512,#119,.T.);
#659=EDGE_CURVE('',#514,#513,#321,.T.);
#660=EDGE_CURVE('',#515,#514,#120,.T.);
#661=EDGE_CURVE('',#509,#515,#322,.T.);
#662=EDGE_CURVE('',#512,#458,#323,.T.);
#663=EDGE_CURVE('',#457,#513,#324,.T.);
#664=EDGE_CURVE('',#459,#511,#325,.T.);
#665=EDGE_CURVE('',#514,#456,#326,.T.);
#666=EDGE_CURVE('',#455,#515,#327,.T.);
#667=ORIENTED_EDGE('',*,*,#516,.F.);
#668=ORIENTED_EDGE('',*,*,#517,.F.);
#669=ORIENTED_EDGE('',*,*,#518,.F.);
#670=ORIENTED_EDGE('',*,*,#519,.T.);
#671=ORIENTED_EDGE('',*,*,#520,.F.);
#672=ORIENTED_EDGE('',*,*,#521,.F.);
#673=ORIENTED_EDGE('',*,*,#519,.F.);
#674=ORIENTED_EDGE('',*,*,#522,.T.);
#675=ORIENTED_EDGE('',*,*,#523,.T.);
#676=ORIENTED_EDGE('',*,*,#524,.F.);
#677=ORIENTED_EDGE('',*,*,#523,.F.);
#678=ORIENTED_EDGE('',*,*,#522,.F.);
#679=ORIENTED_EDGE('',*,*,#525,.F.);
#680=ORIENTED_EDGE('',*,*,#526,.F.);
#681=ORIENTED_EDGE('',*,*,#525,.T.);
#682=ORIENTED_EDGE('',*,*,#527,.T.);
#683=ORIENTED_EDGE('',*,*,#528,.T.);
#684=ORIENTED_EDGE('',*,*,#527,.F.);
#685=ORIENTED_EDGE('',*,*,#528,.F.);
#686=ORIENTED_EDGE('',*,*,#529,.T.);
#687=ORIENTED_EDGE('',*,*,#530,.F.);
#688=ORIENTED_EDGE('',*,*,#529,.F.);
#689=ORIENTED_EDGE('',*,*,#530,.T.);
#690=ORIENTED_EDGE('',*,*,#531,.T.);
#691=ORIENTED_EDGE('',*,*,#532,.T.);
#692=ORIENTED_EDGE('',*,*,#531,.F.);
#693=ORIENTED_EDGE('',*,*,#533,.F.);
#694=ORIENTED_EDGE('',*,*,#534,.T.);
#695=ORIENTED_EDGE('',*,*,#518,.T.);
#696=ORIENTED_EDGE('',*,*,#535,.T.);
#697=ORIENTED_EDGE('',*,*,#526,.T.);
#698=ORIENTED_EDGE('',*,*,#535,.F.);
#699=ORIENTED_EDGE('',*,*,#517,.T.);
#700=ORIENTED_EDGE('',*,*,#516,.T.);
#701=ORIENTED_EDGE('',*,*,#534,.F.);
#702=ORIENTED_EDGE('',*,*,#520,.T.);
#703=ORIENTED_EDGE('',*,*,#521,.T.);
#704=ORIENTED_EDGE('',*,*,#533,.T.);
#705=ORIENTED_EDGE('',*,*,#524,.T.);
#706=ORIENTED_EDGE('',*,*,#532,.F.);
#707=ORIENTED_EDGE('',*,*,#536,.T.);
#708=ORIENTED_EDGE('',*,*,#537,.T.);
#709=ORIENTED_EDGE('',*,*,#538,.T.);
#710=ORIENTED_EDGE('',*,*,#539,.T.);
#711=ORIENTED_EDGE('',*,*,#537,.F.);
#712=ORIENTED_EDGE('',*,*,#540,.F.);
#713=ORIENTED_EDGE('',*,*,#541,.F.);
#714=ORIENTED_EDGE('',*,*,#542,.F.);
#715=ORIENTED_EDGE('',*,*,#543,.T.);
#716=ORIENTED_EDGE('',*,*,#544,.T.);
#717=ORIENTED_EDGE('',*,*,#545,.F.);
#718=ORIENTED_EDGE('',*,*,#546,.T.);
#719=ORIENTED_EDGE('',*,*,#547,.F.);
#720=ORIENTED_EDGE('',*,*,#548,.T.);
#721=ORIENTED_EDGE('',*,*,#549,.F.);
#722=ORIENTED_EDGE('',*,*,#550,.F.);
#723=ORIENTED_EDGE('',*,*,#549,.T.);
#724=ORIENTED_EDGE('',*,*,#551,.T.);
#725=ORIENTED_EDGE('',*,*,#543,.F.);
#726=ORIENTED_EDGE('',*,*,#552,.T.);
#727=ORIENTED_EDGE('',*,*,#540,.T.);
#728=ORIENTED_EDGE('',*,*,#536,.F.);
#729=ORIENTED_EDGE('',*,*,#553,.T.);
#730=ORIENTED_EDGE('',*,*,#554,.T.);
#731=ORIENTED_EDGE('',*,*,#555,.F.);
#732=ORIENTED_EDGE('',*,*,#556,.F.);
#733=ORIENTED_EDGE('',*,*,#557,.F.);
#734=ORIENTED_EDGE('',*,*,#558,.F.);
#735=ORIENTED_EDGE('',*,*,#559,.F.);
#736=ORIENTED_EDGE('',*,*,#560,.F.);
#737=ORIENTED_EDGE('',*,*,#561,.F.);
#738=ORIENTED_EDGE('',*,*,#562,.T.);
#739=ORIENTED_EDGE('',*,*,#544,.F.);
#740=ORIENTED_EDGE('',*,*,#551,.F.);
#741=ORIENTED_EDGE('',*,*,#548,.F.);
#742=ORIENTED_EDGE('',*,*,#563,.F.);
#743=ORIENTED_EDGE('',*,*,#554,.F.);
#744=ORIENTED_EDGE('',*,*,#564,.T.);
#745=ORIENTED_EDGE('',*,*,#565,.F.);
#746=ORIENTED_EDGE('',*,*,#566,.F.);
#747=ORIENTED_EDGE('',*,*,#547,.T.);
#748=ORIENTED_EDGE('',*,*,#567,.F.);
#749=ORIENTED_EDGE('',*,*,#568,.F.);
#750=ORIENTED_EDGE('',*,*,#569,.F.);
#751=ORIENTED_EDGE('',*,*,#570,.F.);
#752=ORIENTED_EDGE('',*,*,#571,.F.);
#753=ORIENTED_EDGE('',*,*,#572,.F.);
#754=ORIENTED_EDGE('',*,*,#573,.F.);
#755=ORIENTED_EDGE('',*,*,#565,.T.);
#756=ORIENTED_EDGE('',*,*,#574,.T.);
#757=ORIENTED_EDGE('',*,*,#538,.F.);
#758=ORIENTED_EDGE('',*,*,#542,.T.);
#759=ORIENTED_EDGE('',*,*,#575,.T.);
#760=ORIENTED_EDGE('',*,*,#545,.T.);
#761=ORIENTED_EDGE('',*,*,#563,.T.);
#762=ORIENTED_EDGE('',*,*,#576,.T.);
#763=ORIENTED_EDGE('',*,*,#539,.F.);
#764=ORIENTED_EDGE('',*,*,#574,.F.);
#765=ORIENTED_EDGE('',*,*,#564,.F.);
#766=ORIENTED_EDGE('',*,*,#553,.F.);
#767=ORIENTED_EDGE('',*,*,#577,.T.);
#768=ORIENTED_EDGE('',*,*,#578,.T.);
#769=ORIENTED_EDGE('',*,*,#579,.F.);
#770=ORIENTED_EDGE('',*,*,#578,.F.);
#771=ORIENTED_EDGE('',*,*,#580,.F.);
#772=ORIENTED_EDGE('',*,*,#581,.T.);
#773=ORIENTED_EDGE('',*,*,#577,.F.);
#774=ORIENTED_EDGE('',*,*,#581,.F.);
#775=ORIENTED_EDGE('',*,*,#580,.T.);
#776=ORIENTED_EDGE('',*,*,#582,.F.);
#777=ORIENTED_EDGE('',*,*,#576,.F.);
#778=ORIENTED_EDGE('',*,*,#583,.T.);
#779=ORIENTED_EDGE('',*,*,#582,.T.);
#780=ORIENTED_EDGE('',*,*,#583,.F.);
#781=ORIENTED_EDGE('',*,*,#584,.F.);
#782=ORIENTED_EDGE('',*,*,#585,.T.);
#783=ORIENTED_EDGE('',*,*,#562,.F.);
#784=ORIENTED_EDGE('',*,*,#585,.F.);
#785=ORIENTED_EDGE('',*,*,#586,.F.);
#786=ORIENTED_EDGE('',*,*,#587,.T.);
#787=ORIENTED_EDGE('',*,*,#588,.F.);
#788=ORIENTED_EDGE('',*,*,#587,.F.);
#789=ORIENTED_EDGE('',*,*,#589,.F.);
#790=ORIENTED_EDGE('',*,*,#590,.F.);
#791=ORIENTED_EDGE('',*,*,#591,.T.);
#792=ORIENTED_EDGE('',*,*,#592,.T.);
#793=ORIENTED_EDGE('',*,*,#593,.F.);
#794=ORIENTED_EDGE('',*,*,#594,.F.);
#795=ORIENTED_EDGE('',*,*,#595,.F.);
#796=ORIENTED_EDGE('',*,*,#594,.T.);
#797=ORIENTED_EDGE('',*,*,#596,.T.);
#798=ORIENTED_EDGE('',*,*,#597,.T.);
#799=ORIENTED_EDGE('',*,*,#598,.F.);
#800=ORIENTED_EDGE('',*,*,#599,.F.);
#801=ORIENTED_EDGE('',*,*,#600,.F.);
#802=ORIENTED_EDGE('',*,*,#601,.T.);
#803=ORIENTED_EDGE('',*,*,#602,.T.);
#804=ORIENTED_EDGE('',*,*,#603,.F.);
#805=ORIENTED_EDGE('',*,*,#604,.F.);
#806=ORIENTED_EDGE('',*,*,#597,.F.);
#807=ORIENTED_EDGE('',*,*,#605,.F.);
#808=ORIENTED_EDGE('',*,*,#606,.F.);
#809=ORIENTED_EDGE('',*,*,#607,.F.);
#810=ORIENTED_EDGE('',*,*,#608,.T.);
#811=ORIENTED_EDGE('',*,*,#609,.T.);
#812=ORIENTED_EDGE('',*,*,#599,.T.);
#813=ORIENTED_EDGE('',*,*,#610,.F.);
#814=ORIENTED_EDGE('',*,*,#606,.T.);
#815=ORIENTED_EDGE('',*,*,#611,.F.);
#816=ORIENTED_EDGE('',*,*,#592,.F.);
#817=ORIENTED_EDGE('',*,*,#612,.F.);
#818=ORIENTED_EDGE('',*,*,#601,.F.);
#819=ORIENTED_EDGE('',*,*,#613,.F.);
#820=ORIENTED_EDGE('',*,*,#614,.T.);
#821=ORIENTED_EDGE('',*,*,#546,.F.);
#822=ORIENTED_EDGE('',*,*,#575,.F.);
#823=ORIENTED_EDGE('',*,*,#541,.T.);
#824=ORIENTED_EDGE('',*,*,#552,.F.);
#825=ORIENTED_EDGE('',*,*,#615,.F.);
#826=ORIENTED_EDGE('',*,*,#614,.F.);
#827=ORIENTED_EDGE('',*,*,#616,.F.);
#828=ORIENTED_EDGE('',*,*,#608,.F.);
#829=ORIENTED_EDGE('',*,*,#617,.F.);
#830=ORIENTED_EDGE('',*,*,#618,.F.);
#831=ORIENTED_EDGE('',*,*,#619,.F.);
#832=ORIENTED_EDGE('',*,*,#620,.F.);
#833=ORIENTED_EDGE('',*,*,#621,.F.);
#834=ORIENTED_EDGE('',*,*,#602,.F.);
#835=ORIENTED_EDGE('',*,*,#612,.T.);
#836=ORIENTED_EDGE('',*,*,#591,.F.);
#837=ORIENTED_EDGE('',*,*,#622,.F.);
#838=ORIENTED_EDGE('',*,*,#623,.F.);
#839=ORIENTED_EDGE('',*,*,#588,.T.);
#840=ORIENTED_EDGE('',*,*,#605,.T.);
#841=ORIENTED_EDGE('',*,*,#596,.F.);
#842=ORIENTED_EDGE('',*,*,#593,.T.);
#843=ORIENTED_EDGE('',*,*,#611,.T.);
#844=ORIENTED_EDGE('',*,*,#616,.T.);
#845=ORIENTED_EDGE('',*,*,#613,.T.);
#846=ORIENTED_EDGE('',*,*,#600,.T.);
#847=ORIENTED_EDGE('',*,*,#609,.F.);
#848=ORIENTED_EDGE('',*,*,#618,.T.);
#849=ORIENTED_EDGE('',*,*,#624,.F.);
#850=ORIENTED_EDGE('',*,*,#625,.T.);
#851=ORIENTED_EDGE('',*,*,#626,.F.);
#852=ORIENTED_EDGE('',*,*,#617,.T.);
#853=ORIENTED_EDGE('',*,*,#627,.T.);
#854=ORIENTED_EDGE('',*,*,#628,.T.);
#855=ORIENTED_EDGE('',*,*,#624,.T.);
#856=ORIENTED_EDGE('',*,*,#623,.T.);
#857=ORIENTED_EDGE('',*,*,#629,.F.);
#858=ORIENTED_EDGE('',*,*,#630,.T.);
#859=ORIENTED_EDGE('',*,*,#627,.F.);
#860=ORIENTED_EDGE('',*,*,#631,.F.);
#861=ORIENTED_EDGE('',*,*,#625,.F.);
#862=ORIENTED_EDGE('',*,*,#628,.F.);
#863=ORIENTED_EDGE('',*,*,#630,.F.);
#864=ORIENTED_EDGE('',*,*,#632,.F.);
#865=ORIENTED_EDGE('',*,*,#633,.F.);
#866=ORIENTED_EDGE('',*,*,#634,.F.);
#867=ORIENTED_EDGE('',*,*,#635,.F.);
#868=ORIENTED_EDGE('',*,*,#586,.T.);
#869=ORIENTED_EDGE('',*,*,#619,.T.);
#870=ORIENTED_EDGE('',*,*,#626,.T.);
#871=ORIENTED_EDGE('',*,*,#631,.T.);
#872=ORIENTED_EDGE('',*,*,#636,.T.);
#873=ORIENTED_EDGE('',*,*,#620,.T.);
#874=ORIENTED_EDGE('',*,*,#636,.F.);
#875=ORIENTED_EDGE('',*,*,#635,.T.);
#876=ORIENTED_EDGE('',*,*,#637,.F.);
#877=ORIENTED_EDGE('',*,*,#589,.T.);
#878=ORIENTED_EDGE('',*,*,#595,.T.);
#879=ORIENTED_EDGE('',*,*,#604,.T.);
#880=ORIENTED_EDGE('',*,*,#610,.T.);
#881=ORIENTED_EDGE('',*,*,#615,.T.);
#882=ORIENTED_EDGE('',*,*,#607,.T.);
#883=ORIENTED_EDGE('',*,*,#598,.T.);
#884=ORIENTED_EDGE('',*,*,#638,.F.);
#885=ORIENTED_EDGE('',*,*,#639,.F.);
#886=ORIENTED_EDGE('',*,*,#640,.F.);
#887=ORIENTED_EDGE('',*,*,#641,.F.);
#888=ORIENTED_EDGE('',*,*,#642,.F.);
#889=ORIENTED_EDGE('',*,*,#643,.F.);
#890=ORIENTED_EDGE('',*,*,#644,.F.);
#891=ORIENTED_EDGE('',*,*,#584,.T.);
#892=ORIENTED_EDGE('',*,*,#557,.T.);
#893=ORIENTED_EDGE('',*,*,#645,.T.);
#894=ORIENTED_EDGE('',*,*,#642,.T.);
#895=ORIENTED_EDGE('',*,*,#646,.T.);
#896=ORIENTED_EDGE('',*,*,#556,.T.);
#897=ORIENTED_EDGE('',*,*,#647,.F.);
#898=ORIENTED_EDGE('',*,*,#643,.T.);
#899=ORIENTED_EDGE('',*,*,#645,.F.);
#900=ORIENTED_EDGE('',*,*,#558,.T.);
#901=ORIENTED_EDGE('',*,*,#646,.F.);
#902=ORIENTED_EDGE('',*,*,#641,.T.);
#903=ORIENTED_EDGE('',*,*,#648,.F.);
#904=ORIENTED_EDGE('',*,*,#559,.T.);
#905=ORIENTED_EDGE('',*,*,#648,.T.);
#906=ORIENTED_EDGE('',*,*,#640,.T.);
#907=ORIENTED_EDGE('',*,*,#649,.T.);
#908=ORIENTED_EDGE('',*,*,#560,.T.);
#909=ORIENTED_EDGE('',*,*,#649,.F.);
#910=ORIENTED_EDGE('',*,*,#639,.T.);
#911=ORIENTED_EDGE('',*,*,#650,.F.);
#912=ORIENTED_EDGE('',*,*,#651,.T.);
#913=ORIENTED_EDGE('',*,*,#652,.T.);
#914=ORIENTED_EDGE('',*,*,#653,.T.);
#915=ORIENTED_EDGE('',*,*,#567,.T.);
#916=ORIENTED_EDGE('',*,*,#550,.T.);
#917=ORIENTED_EDGE('',*,*,#561,.T.);
#918=ORIENTED_EDGE('',*,*,#650,.T.);
#919=ORIENTED_EDGE('',*,*,#638,.T.);
#920=ORIENTED_EDGE('',*,*,#603,.T.);
#921=ORIENTED_EDGE('',*,*,#621,.T.);
#922=ORIENTED_EDGE('',*,*,#637,.T.);
#923=ORIENTED_EDGE('',*,*,#634,.T.);
#924=ORIENTED_EDGE('',*,*,#654,.F.);
#925=ORIENTED_EDGE('',*,*,#655,.T.);
#926=ORIENTED_EDGE('',*,*,#651,.F.);
#927=ORIENTED_EDGE('',*,*,#633,.T.);
#928=ORIENTED_EDGE('',*,*,#652,.F.);
#929=ORIENTED_EDGE('',*,*,#655,.F.);
#930=ORIENTED_EDGE('',*,*,#656,.F.);
#931=ORIENTED_EDGE('',*,*,#657,.F.);
#932=ORIENTED_EDGE('',*,*,#658,.F.);
#933=ORIENTED_EDGE('',*,*,#659,.F.);
#934=ORIENTED_EDGE('',*,*,#660,.F.);
#935=ORIENTED_EDGE('',*,*,#661,.F.);
#936=ORIENTED_EDGE('',*,*,#579,.T.);
#937=ORIENTED_EDGE('',*,*,#658,.T.);
#938=ORIENTED_EDGE('',*,*,#662,.T.);
#939=ORIENTED_EDGE('',*,*,#571,.T.);
#940=ORIENTED_EDGE('',*,*,#663,.T.);
#941=ORIENTED_EDGE('',*,*,#657,.T.);
#942=ORIENTED_EDGE('',*,*,#664,.F.);
#943=ORIENTED_EDGE('',*,*,#572,.T.);
#944=ORIENTED_EDGE('',*,*,#662,.F.);
#945=ORIENTED_EDGE('',*,*,#573,.T.);
#946=ORIENTED_EDGE('',*,*,#664,.T.);
#947=ORIENTED_EDGE('',*,*,#656,.T.);
#948=ORIENTED_EDGE('',*,*,#654,.T.);
#949=ORIENTED_EDGE('',*,*,#632,.T.);
#950=ORIENTED_EDGE('',*,*,#629,.T.);
#951=ORIENTED_EDGE('',*,*,#622,.T.);
#952=ORIENTED_EDGE('',*,*,#590,.T.);
#953=ORIENTED_EDGE('',*,*,#644,.T.);
#954=ORIENTED_EDGE('',*,*,#647,.T.);
#955=ORIENTED_EDGE('',*,*,#555,.T.);
#956=ORIENTED_EDGE('',*,*,#566,.T.);
#957=ORIENTED_EDGE('',*,*,#659,.T.);
#958=ORIENTED_EDGE('',*,*,#663,.F.);
#959=ORIENTED_EDGE('',*,*,#570,.T.);
#960=ORIENTED_EDGE('',*,*,#665,.F.);
#961=ORIENTED_EDGE('',*,*,#660,.T.);
#962=ORIENTED_EDGE('',*,*,#665,.T.);
#963=ORIENTED_EDGE('',*,*,#569,.T.);
#964=ORIENTED_EDGE('',*,*,#666,.T.);
#965=ORIENTED_EDGE('',*,*,#661,.T.);
#966=ORIENTED_EDGE('',*,*,#666,.F.);
#967=ORIENTED_EDGE('',*,*,#568,.T.);
#968=ORIENTED_EDGE('',*,*,#653,.F.);
#969=CYLINDRICAL_SURFACE('',#1067,1.0085);
#970=CYLINDRICAL_SURFACE('',#1068,1.5085);
#971=CYLINDRICAL_SURFACE('',#1077,4.);
#972=CYLINDRICAL_SURFACE('',#1081,2.5);
#973=CYLINDRICAL_SURFACE('',#1085,2.);
#974=CYLINDRICAL_SURFACE('',#1089,2.);
#975=CYLINDRICAL_SURFACE('',#1092,2.);
#976=CYLINDRICAL_SURFACE('',#1105,8.);
#977=CYLINDRICAL_SURFACE('',#1107,2.);
#978=CYLINDRICAL_SURFACE('',#1117,8.);
#979=CYLINDRICAL_SURFACE('',#1118,4.0085);
#980=CYLINDRICAL_SURFACE('',#1125,2.70850000000002);
#981=CYLINDRICAL_SURFACE('',#1126,2.70850000000002);
#982=CYLINDRICAL_SURFACE('',#1128,2.70850000000002);
#983=CYLINDRICAL_SURFACE('',#1132,8.);
#984=CYLINDRICAL_SURFACE('',#1137,8.);
#985=CYLINDRICAL_SURFACE('',#1140,7.2085);
#986=CYLINDRICAL_SURFACE('',#1145,7.2085);
#987=CYLINDRICAL_SURFACE('',#1155,7.99975);
#988=CYLINDRICAL_SURFACE('',#1162,7.99975);
#989=CYLINDRICAL_SURFACE('',#1169,7.99975);
#990=CYLINDRICAL_SURFACE('',#1172,7.99975);
#991=CYLINDRICAL_SURFACE('',#1174,7.99975);
#992=CYLINDRICAL_SURFACE('',#1181,7.99975);
#993=CYLINDRICAL_SURFACE('',#1183,7.99975);
#994=CYLINDRICAL_SURFACE('',#1185,7.99975);
#995=ADVANCED_FACE('',(#121),#969,.F.);
#996=ADVANCED_FACE('',(#122),#970,.F.);
#997=ADVANCED_FACE('',(#123),#30,.F.);
#998=ADVANCED_FACE('',(#124,#20),#31,.T.);
#999=ADVANCED_FACE('',(#125),#17,.T.);
#1000=ADVANCED_FACE('',(#126),#971,.T.);
#1001=ADVANCED_FACE('',(#127),#18,.T.);
#1002=ADVANCED_FACE('',(#128,#21),#972,.T.);
#1003=ADVANCED_FACE('',(#129,#22),#32,.T.);
#1004=ADVANCED_FACE('',(#130),#33,.F.);
#1005=ADVANCED_FACE('',(#131),#973,.T.);
#1006=ADVANCED_FACE('',(#132),#34,.T.);
#1007=ADVANCED_FACE('',(#133),#974,.T.);
#1008=ADVANCED_FACE('',(#134),#975,.F.);
#1009=ADVANCED_FACE('',(#135,#23),#35,.T.);
#1010=ADVANCED_FACE('',(#136),#976,.T.);
#1011=ADVANCED_FACE('',(#137),#977,.F.);
#1012=ADVANCED_FACE('',(#138,#24),#36,.T.);
#1013=ADVANCED_FACE('',(#139),#978,.T.);
#1014=ADVANCED_FACE('',(#140),#979,.F.);
#1015=ADVANCED_FACE('',(#141),#19,.F.);
#1016=ADVANCED_FACE('',(#142,#25),#37,.T.);
#1017=ADVANCED_FACE('',(#143),#980,.F.);
#1018=ADVANCED_FACE('',(#144),#981,.F.);
#1019=ADVANCED_FACE('',(#145),#982,.F.);
#1020=ADVANCED_FACE('',(#146),#38,.T.);
#1021=ADVANCED_FACE('',(#147),#983,.T.);
#1022=ADVANCED_FACE('',(#148),#39,.T.);
#1023=ADVANCED_FACE('',(#149),#40,.T.);
#1024=ADVANCED_FACE('',(#150),#984,.T.);
#1025=ADVANCED_FACE('',(#151),#985,.F.);
#1026=ADVANCED_FACE('',(#152),#986,.F.);
#1027=ADVANCED_FACE('',(#153),#41,.T.);
#1028=ADVANCED_FACE('',(#154,#26),#42,.T.);
#1029=ADVANCED_FACE('',(#155),#43,.F.);
#1030=ADVANCED_FACE('',(#156),#44,.F.);
#1031=ADVANCED_FACE('',(#157),#45,.F.);
#1032=ADVANCED_FACE('',(#158),#987,.T.);
#1033=ADVANCED_FACE('',(#159),#46,.T.);
#1034=ADVANCED_FACE('',(#160,#27),#47,.T.);
#1035=ADVANCED_FACE('',(#161),#988,.T.);
#1036=ADVANCED_FACE('',(#162),#48,.F.);
#1037=ADVANCED_FACE('',(#163,#28),#49,.T.);
#1038=ADVANCED_FACE('',(#164),#989,.T.);
#1039=ADVANCED_FACE('',(#165),#50,.T.);
#1040=ADVANCED_FACE('',(#166),#51,.F.);
#1041=ADVANCED_FACE('',(#167),#990,.T.);
#1042=ADVANCED_FACE('',(#168),#52,.F.);
#1043=ADVANCED_FACE('',(#169),#991,.T.);
#1044=ADVANCED_FACE('',(#170),#53,.F.);
#1045=ADVANCED_FACE('',(#171,#29),#54,.T.);
#1046=ADVANCED_FACE('',(#172),#992,.T.);
#1047=ADVANCED_FACE('',(#173),#55,.T.);
#1048=ADVANCED_FACE('',(#174),#993,.T.);
#1049=ADVANCED_FACE('',(#175),#56,.F.);
#1050=ADVANCED_FACE('',(#176),#994,.T.);
#1051=ADVANCED_FACE('',(#177),#57,.F.);
#1052=CLOSED_SHELL('',(#995,#996,#997,#998,#999,#1000,#1001,#1002,#1003,
#1004));
#1053=CLOSED_SHELL('',(#1005,#1006,#1007,#1008,#1009,#1010,#1011,#1012,
#1013,#1014,#1015,#1016,#1017,#1018,#1019,#1020,#1021,#1022,#1023,#1024,
#1025,#1026,#1027,#1028,#1029,#1030,#1031,#1032,#1033,#1034,#1035,#1036,
#1037,#1038,#1039,#1040,#1041,#1042,#1043,#1044,#1045,#1046,#1047,#1048,
#1049,#1050,#1051));
#1054=DERIVED_UNIT_ELEMENT(#1056,1.);
#1055=DERIVED_UNIT_ELEMENT(#1895,-3.);
#1056=(
MASS_UNIT()
NAMED_UNIT(*)
SI_UNIT(.KILO.,.GRAM.)
);
#1057=DERIVED_UNIT((#1054,#1055));
#1058=MEASURE_REPRESENTATION_ITEM('density measure',
POSITIVE_RATIO_MEASURE(7850.),#1057);
#1059=PROPERTY_DEFINITION_REPRESENTATION(#1064,#1061);
#1060=PROPERTY_DEFINITION_REPRESENTATION(#1065,#1062);
#1061=REPRESENTATION('material name',(#1063),#1892);
#1062=REPRESENTATION('density',(#1058),#1892);
#1063=DESCRIPTIVE_REPRESENTATION_ITEM('Steel','Steel');
#1064=PROPERTY_DEFINITION('material property','material name',#1902);
#1065=PROPERTY_DEFINITION('material property','density of part',#1902);
#1066=AXIS2_PLACEMENT_3D('',#1512,#1187,#1188);
#1067=AXIS2_PLACEMENT_3D('',#1513,#1189,#1190);
#1068=AXIS2_PLACEMENT_3D('',#1594,#1192,#1193);
#1069=AXIS2_PLACEMENT_3D('',#1596,#1194,#1195);
#1070=AXIS2_PLACEMENT_3D('',#1599,#1197,#1198);
#1071=AXIS2_PLACEMENT_3D('',#1600,#1199,#1200);
#1072=AXIS2_PLACEMENT_3D('',#1601,#1201,#1202);
#1073=AXIS2_PLACEMENT_3D('',#1603,#1203,#1204);
#1074=AXIS2_PLACEMENT_3D('',#1605,#1205,#1206);
#1075=AXIS2_PLACEMENT_3D('',#1606,#1207,#1208);
#1076=AXIS2_PLACEMENT_3D('',#1609,#1210,#1211);
#1077=AXIS2_PLACEMENT_3D('',#1610,#1212,#1213);
#1078=AXIS2_PLACEMENT_3D('',#1613,#1215,#1216);
#1079=AXIS2_PLACEMENT_3D('',#1614,#1217,#1218);
#1080=AXIS2_PLACEMENT_3D('',#1617,#1220,#1221);
#1081=AXIS2_PLACEMENT_3D('',#1618,#1222,#1223);
#1082=AXIS2_PLACEMENT_3D('',#1620,#1224,#1225);
#1083=AXIS2_PLACEMENT_3D('',#1623,#1228,#1229);
#1084=AXIS2_PLACEMENT_3D('',#1624,#1230,#1231);
#1085=AXIS2_PLACEMENT_3D('',#1625,#1232,#1233);
#1086=AXIS2_PLACEMENT_3D('',#1628,#1234,#1235);
#1087=AXIS2_PLACEMENT_3D('',#1632,#1237,#1238);
#1088=AXIS2_PLACEMENT_3D('',#1634,#1240,#1241);
#1089=AXIS2_PLACEMENT_3D('',#1640,#1245,#1246);
#1090=AXIS2_PLACEMENT_3D('',#1643,#1247,#1248);
#1091=AXIS2_PLACEMENT_3D('',#1647,#1250,#1251);
#1092=AXIS2_PLACEMENT_3D('',#1649,#1253,#1254);
#1093=AXIS2_PLACEMENT_3D('',#1652,#1255,#1256);
#1094=AXIS2_PLACEMENT_3D('',#1656,#1258,#1259);
#1095=AXIS2_PLACEMENT_3D('',#1658,#1261,#1262);
#1096=AXIS2_PLACEMENT_3D('',#1659,#1263,#1264);
#1097=AXIS2_PLACEMENT_3D('',#1660,#1265,#1266);
#1098=AXIS2_PLACEMENT_3D('',#1662,#1267,#1268);
#1099=AXIS2_PLACEMENT_3D('',#1664,#1269,#1270);
#1100=AXIS2_PLACEMENT_3D('',#1666,#1271,#1272);
#1101=AXIS2_PLACEMENT_3D('',#1670,#1274,#1275);
#1102=AXIS2_PLACEMENT_3D('',#1674,#1277,#1278);
#1103=AXIS2_PLACEMENT_3D('',#1677,#1280,#1281);
#1104=AXIS2_PLACEMENT_3D('',#1679,#1282,#1283);
#1105=AXIS2_PLACEMENT_3D('',#1680,#1284,#1285);
#1106=AXIS2_PLACEMENT_3D('',#1681,#1286,#1287);
#1107=AXIS2_PLACEMENT_3D('',#1682,#1288,#1289);
#1108=AXIS2_PLACEMENT_3D('',#1686,#1291,#1292);
#1109=AXIS2_PLACEMENT_3D('',#1688,#1294,#1295);
#1110=AXIS2_PLACEMENT_3D('',#1690,#1296,#1297);
#1111=AXIS2_PLACEMENT_3D('',#1694,#1299,#1300);
#1112=AXIS2_PLACEMENT_3D('',#1698,#1302,#1303);
#1113=AXIS2_PLACEMENT_3D('',#1701,#1305,#1306);
#1114=AXIS2_PLACEMENT_3D('',#1702,#1307,#1308);
#1115=AXIS2_PLACEMENT_3D('',#1703,#1309,#1310);
#1116=AXIS2_PLACEMENT_3D('',#1705,#1311,#1312);
#1117=AXIS2_PLACEMENT_3D('',#1706,#1313,#1314);
#1118=AXIS2_PLACEMENT_3D('',#1707,#1315,#1316);
#1119=AXIS2_PLACEMENT_3D('',#1709,#1317,#1318);
#1120=AXIS2_PLACEMENT_3D('',#1712,#1320,#1321);
#1121=AXIS2_PLACEMENT_3D('',#1713,#1322,#1323);
#1122=AXIS2_PLACEMENT_3D('',#1715,#1324,#1325);
#1123=AXIS2_PLACEMENT_3D('',#1717,#1327,#1328);
#1124=AXIS2_PLACEMENT_3D('',#1719,#1329,#1330);
#1125=AXIS2_PLACEMENT_3D('',#1720,#1331,#1332);
#1126=AXIS2_PLACEMENT_3D('',#1722,#1334,#1335);
#1127=AXIS2_PLACEMENT_3D('',#1724,#1336,#1337);
#1128=AXIS2_PLACEMENT_3D('',#1726,#1339,#1340);
#1129=AXIS2_PLACEMENT_3D('',#1728,#1341,#1342);
#1130=AXIS2_PLACEMENT_3D('',#1731,#1344,#1345);
#1131=AXIS2_PLACEMENT_3D('',#1732,#1346,#1347);
#1132=AXIS2_PLACEMENT_3D('',#1745,#1354,#1355);
#1133=AXIS2_PLACEMENT_3D('',#1747,#1356,#1357);
#1134=AXIS2_PLACEMENT_3D('',#1749,#1358,#1359);
#1135=AXIS2_PLACEMENT_3D('',#1751,#1361,#1362);
#1136=AXIS2_PLACEMENT_3D('',#1764,#1369,#1370);
#1137=AXIS2_PLACEMENT_3D('',#1770,#1374,#1375);
#1138=AXIS2_PLACEMENT_3D('',#1772,#1376,#1377);
#1139=AXIS2_PLACEMENT_3D('',#1775,#1379,#1380);
#1140=AXIS2_PLACEMENT_3D('',#1776,#1381,#1382);
#1141=AXIS2_PLACEMENT_3D('',#1778,#1383,#1384);
#1142=AXIS2_PLACEMENT_3D('',#1779,#1385,#1386);
#1143=AXIS2_PLACEMENT_3D('',#1780,#1387,#1388);
#1144=AXIS2_PLACEMENT_3D('',#1782,#1389,#1390);
#1145=AXIS2_PLACEMENT_3D('',#1784,#1392,#1393);
#1146=AXIS2_PLACEMENT_3D('',#1785,#1394,#1395);
#1147=AXIS2_PLACEMENT_3D('',#1788,#1398,#1399);
#1148=AXIS2_PLACEMENT_3D('',#1791,#1400,#1401);
#1149=AXIS2_PLACEMENT_3D('',#1795,#1403,#1404);
#1150=AXIS2_PLACEMENT_3D('',#1798,#1406,#1407);
#1151=AXIS2_PLACEMENT_3D('',#1800,#1408,#1409);
#1152=AXIS2_PLACEMENT_3D('',#1802,#1411,#1412);
#1153=AXIS2_PLACEMENT_3D('',#1803,#1413,#1414);
#1154=AXIS2_PLACEMENT_3D('',#1804,#1415,#1416);
#1155=AXIS2_PLACEMENT_3D('',#1810,#1420,#1421);
#1156=AXIS2_PLACEMENT_3D('',#1813,#1423,#1424);
#1157=AXIS2_PLACEMENT_3D('',#1814,#1425,#1426);
#1158=AXIS2_PLACEMENT_3D('',#1818,#1429,#1430);
#1159=AXIS2_PLACEMENT_3D('',#1820,#1431,#1432);
#1160=AXIS2_PLACEMENT_3D('',#1822,#1433,#1434);
#1161=AXIS2_PLACEMENT_3D('',#1826,#1436,#1437);
#1162=AXIS2_PLACEMENT_3D('',#1828,#1439,#1440);
#1163=AXIS2_PLACEMENT_3D('',#1830,#1442,#1443);
#1164=AXIS2_PLACEMENT_3D('',#1832,#1445,#1446);
#1165=AXIS2_PLACEMENT_3D('',#1834,#1447,#1448);
#1166=AXIS2_PLACEMENT_3D('',#1838,#1450,#1451);
#1167=AXIS2_PLACEMENT_3D('',#1842,#1453,#1454);
#1168=AXIS2_PLACEMENT_3D('',#1845,#1456,#1457);
#1169=AXIS2_PLACEMENT_3D('',#1846,#1458,#1459);
#1170=AXIS2_PLACEMENT_3D('',#1849,#1462,#1463);
#1171=AXIS2_PLACEMENT_3D('',#1851,#1465,#1466);
#1172=AXIS2_PLACEMENT_3D('',#1853,#1468,#1469);
#1173=AXIS2_PLACEMENT_3D('',#1855,#1471,#1472);
#1174=AXIS2_PLACEMENT_3D('',#1857,#1474,#1475);
#1175=AXIS2_PLACEMENT_3D('',#1861,#1477,#1478);
#1176=AXIS2_PLACEMENT_3D('',#1863,#1480,#1481);
#1177=AXIS2_PLACEMENT_3D('',#1867,#1484,#1485);
#1178=AXIS2_PLACEMENT_3D('',#1869,#1486,#1487);
#1179=AXIS2_PLACEMENT_3D('',#1873,#1489,#1490);
#1180=AXIS2_PLACEMENT_3D('',#1877,#1492,#1493);
#1181=AXIS2_PLACEMENT_3D('',#1879,#1495,#1496);
#1182=AXIS2_PLACEMENT_3D('',#1882,#1499,#1500);
#1183=AXIS2_PLACEMENT_3D('',#1884,#1502,#1503);
#1184=AXIS2_PLACEMENT_3D('',#1885,#1504,#1505);
#1185=AXIS2_PLACEMENT_3D('',#1887,#1507,#1508);
#1186=AXIS2_PLACEMENT_3D('',#1889,#1510,#1511);
#1187=DIRECTION('axis',(0.,0.,1.));
#1188=DIRECTION('refdir',(1.,0.,0.));
#1189=DIRECTION('center_axis',(1.,-1.62041434000988E-17,6.17003695329023E-17));
#1190=DIRECTION('ref_axis',(6.07678606309682E-17,-2.22044604925031E-16,
-1.));
#1191=DIRECTION('',(1.,-1.62041434000988E-17,6.17003695329023E-17));
#1192=DIRECTION('center_axis',(0.,3.2192933401624E-16,1.));
#1193=DIRECTION('ref_axis',(1.,0.,0.));
#1194=DIRECTION('center_axis',(0.,7.24087754279776E-16,-1.));
#1195=DIRECTION('ref_axis',(1.,0.,0.));
#1196=DIRECTION('',(0.,3.2192933401624E-16,1.));
#1197=DIRECTION('center_axis',(0.,4.9789962505148E-16,-1.));
#1198=DIRECTION('ref_axis',(1.,0.,0.));
#1199=DIRECTION('center_axis',(0.,7.24087754279776E-16,-1.));
#1200=DIRECTION('ref_axis',(-1.,0.,0.));
#1201=DIRECTION('center_axis',(0.,4.50892738257736E-16,1.));
#1202=DIRECTION('ref_axis',(1.,0.,0.));
#1203=DIRECTION('center_axis',(0.,-4.50892738257736E-16,-1.));
#1204=DIRECTION('ref_axis',(1.,0.,0.));
#1205=DIRECTION('center_axis',(0.,4.50892738257736E-16,1.));
#1206=DIRECTION('ref_axis',(1.,0.,0.));
#1207=DIRECTION('center_axis',(0.,-4.35129951889618E-16,-1.));
#1208=DIRECTION('ref_axis',(1.,0.,0.));
#1209=DIRECTION('',(-0.995037190209989,-1.65153959472769E-16,-0.0995037190209989));
#1210=DIRECTION('center_axis',(0.,4.50892738257736E-16,1.));
#1211=DIRECTION('ref_axis',(1.,0.,0.));
#1212=DIRECTION('center_axis',(0.,-1.14114868492214E-15,1.));
#1213=DIRECTION('ref_axis',(1.,0.,0.));
#1214=DIRECTION('',(0.,1.14114868492214E-15,-1.));
#1215=DIRECTION('center_axis',(0.,-4.50892738257736E-16,-1.));
#1216=DIRECTION('ref_axis',(1.,0.,0.));
#1217=DIRECTION('center_axis',(0.,4.35129951889618E-16,1.));
#1218=DIRECTION('ref_axis',(1.,0.,0.));
#1219=DIRECTION('',(0.995037190209989,7.85598625318786E-17,-0.0995037190209989));
#1220=DIRECTION('center_axis',(0.,4.50892738257736E-16,1.));
#1221=DIRECTION('ref_axis',(1.,0.,0.));
#1222=DIRECTION('center_axis',(0.,4.40171920593224E-16,1.));
#1223=DIRECTION('ref_axis',(1.,0.,0.));
#1224=DIRECTION('center_axis',(0.,-4.9789962505148E-16,1.));
#1225=DIRECTION('ref_axis',(1.,0.,0.));
#1226=DIRECTION('',(0.,-4.40171920593225E-16,-1.));
#1227=DIRECTION('',(0.,-4.40171920593225E-16,-1.));
#1228=DIRECTION('center_axis',(0.,-4.9789962505148E-16,1.));
#1229=DIRECTION('ref_axis',(1.,0.,0.));
#1230=DIRECTION('center_axis',(0.,-4.9789962505148E-16,1.));
#1231=DIRECTION('ref_axis',(1.,0.,0.));
#1232=DIRECTION('center_axis',(0.,1.35946431373238E-16,1.));
#1233=DIRECTION('ref_axis',(0.865688566439667,-0.500582966086176,6.80414105436486E-17));
#1234=DIRECTION('center_axis',(0.,-2.78800943053432E-16,-1.));
#1235=DIRECTION('ref_axis',(0.865688566439667,-0.500582966086176,6.80414105436486E-17));
#1236=DIRECTION('',(0.,1.35946431373238E-16,1.));
#1237=DIRECTION('center_axis',(0.,2.41137148685762E-16,1.));
#1238=DIRECTION('ref_axis',(0.865688566439667,-0.500582966086176,6.80414105436486E-17));
#1239=DIRECTION('',(0.,-1.35946431373238E-16,-1.));
#1240=DIRECTION('center_axis',(1.,0.,0.));
#1241=DIRECTION('ref_axis',(0.,0.,-1.));
#1242=DIRECTION('',(0.,-1.,2.78800943053432E-16));
#1243=DIRECTION('',(0.,-1.83464640519122E-16,-1.));
#1244=DIRECTION('',(0.,1.,-2.41137148685762E-16));
#1245=DIRECTION('center_axis',(0.,-1.35946431373238E-16,-1.));
#1246=DIRECTION('ref_axis',(0.493278006539759,0.869871719430032,-1.182457994367E-16));
#1247=DIRECTION('center_axis',(0.,-2.78800943053432E-16,-1.));
#1248=DIRECTION('ref_axis',(0.493278006539759,0.869871719430032,-1.182457994367E-16));
#1249=DIRECTION('',(0.,1.35946431373238E-16,1.));
#1250=DIRECTION('center_axis',(0.,2.41137148685762E-16,1.));
#1251=DIRECTION('ref_axis',(0.493278006539759,0.869871719430032,-1.182457994367E-16));
#1252=DIRECTION('',(0.,-1.83464640519122E-16,-1.));
#1253=DIRECTION('center_axis',(0.,1.35946431373238E-16,1.));
#1254=DIRECTION('ref_axis',(0.200917937666984,-0.979608075877106,0.));
#1255=DIRECTION('center_axis',(0.,-2.41137148685762E-16,-1.));
#1256=DIRECTION('ref_axis',(0.200917937666984,-0.979608075877106,0.));
#1257=DIRECTION('',(0.,-1.35946431373238E-16,-1.));
#1258=DIRECTION('center_axis',(0.,2.78800943053432E-16,1.));
#1259=DIRECTION('ref_axis',(0.200917937666984,-0.979608075877106,0.));
#1260=DIRECTION('',(0.,-2.2408537984338E-16,-1.));
#1261=DIRECTION('center_axis',(0.,2.78800943053432E-16,1.));
#1262=DIRECTION('ref_axis',(1.,0.,0.));
#1263=DIRECTION('center_axis',(0.,-2.78800943053432E-16,-1.));
#1264=DIRECTION('ref_axis',(1.,0.,0.));
#1265=DIRECTION('center_axis',(0.,2.78800943053432E-16,1.));
#1266=DIRECTION('ref_axis',(1.,0.,0.));
#1267=DIRECTION('center_axis',(0.,-2.78800943053432E-16,-1.));
#1268=DIRECTION('ref_axis',(1.,0.,0.));
#1269=DIRECTION('center_axis',(0.,2.78800943053432E-16,1.));
#1270=DIRECTION('ref_axis',(0.200917937666985,0.979608075877106,0.));
#1271=DIRECTION('center_axis',(0.,-2.78800943053432E-16,-1.));
#1272=DIRECTION('ref_axis',(-0.707106781186547,-0.707106781186547,2.43952599700901E-16));
#1273=DIRECTION('',(-1.,0.,0.));
#1274=DIRECTION('center_axis',(0.,-2.78800943053432E-16,-1.));
#1275=DIRECTION('ref_axis',(0.707106781186547,-0.707106781186547,2.43952599700901E-16));
#1276=DIRECTION('',(0.,-1.,2.78800943053432E-16));
#1277=DIRECTION('center_axis',(0.,-2.78800943053432E-16,-1.));
#1278=DIRECTION('ref_axis',(0.707106781186547,0.707106781186547,-2.43952599700901E-16));
#1279=DIRECTION('',(1.,0.,0.));
#1280=DIRECTION('center_axis',(0.,-2.78800943053432E-16,-1.));
#1281=DIRECTION('ref_axis',(-0.707106781186547,0.707106781186547,-2.43952599700901E-16));
#1282=DIRECTION('center_axis',(0.,-2.78800943053432E-16,-1.));
#1283=DIRECTION('ref_axis',(1.,0.,0.));
#1284=DIRECTION('center_axis',(0.,1.35946431373238E-16,1.));
#1285=DIRECTION('ref_axis',(1.,0.,0.));
#1286=DIRECTION('center_axis',(0.,2.41137148685762E-16,1.));
#1287=DIRECTION('ref_axis',(1.,0.,0.));
#1288=DIRECTION('center_axis',(0.,-1.35946431373238E-16,-1.));
#1289=DIRECTION('ref_axis',(0.200917937666985,0.979608075877106,0.));
#1290=DIRECTION('',(0.,1.35946431373238E-16,1.));
#1291=DIRECTION('center_axis',(0.,-2.41137148685762E-16,-1.));
#1292=DIRECTION('ref_axis',(0.200917937666985,0.979608075877106,0.));
#1293=DIRECTION('',(0.,2.2408537984338E-16,1.));
#1294=DIRECTION('center_axis',(0.,-2.41137148685762E-16,-1.));
#1295=DIRECTION('ref_axis',(-1.,0.,0.));
#1296=DIRECTION('center_axis',(0.,2.41137148685762E-16,1.));
#1297=DIRECTION('ref_axis',(-0.707106781186547,0.707106781186547,-2.43952599700901E-16));
#1298=DIRECTION('',(-1.,0.,0.));
#1299=DIRECTION('center_axis',(0.,2.41137148685762E-16,1.));
#1300=DIRECTION('ref_axis',(0.707106781186547,0.707106781186547,-2.43952599700901E-16));
#1301=DIRECTION('',(0.,1.,-2.41137148685762E-16));
#1302=DIRECTION('center_axis',(0.,2.41137148685762E-16,1.));
#1303=DIRECTION('ref_axis',(0.707106781186547,-0.707106781186547,2.43952599700901E-16));
#1304=DIRECTION('',(1.,0.,0.));
#1305=DIRECTION('center_axis',(0.,2.41137148685762E-16,1.));
#1306=DIRECTION('ref_axis',(-0.707106781186547,-0.707106781186547,2.43952599700901E-16));
#1307=DIRECTION('center_axis',(0.,2.41137148685762E-16,1.));
#1308=DIRECTION('ref_axis',(1.,0.,0.));
#1309=DIRECTION('center_axis',(0.,-2.41137148685762E-16,-1.));
#1310=DIRECTION('ref_axis',(1.,0.,0.));
#1311=DIRECTION('center_axis',(0.,2.41137148685762E-16,1.));
#1312=DIRECTION('ref_axis',(1.,0.,0.));
#1313=DIRECTION('center_axis',(0.,1.35946431373238E-16,1.));
#1314=DIRECTION('ref_axis',(1.,0.,0.));
#1315=DIRECTION('center_axis',(0.,-1.38787812428055E-15,1.));
#1316=DIRECTION('ref_axis',(1.,0.,0.));
#1317=DIRECTION('center_axis',(0.,-2.05696243688741E-16,-1.));
#1318=DIRECTION('ref_axis',(1.,0.,0.));
#1319=DIRECTION('',(0.,-1.38787812428055E-15,1.));
#1320=DIRECTION('center_axis',(0.,-2.78800943053432E-16,-1.));
#1321=DIRECTION('ref_axis',(1.,0.,0.));
#1322=DIRECTION('center_axis',(0.,1.89958777256455E-16,1.));
#1323=DIRECTION('ref_axis',(1.,0.,0.));
#1324=DIRECTION('center_axis',(0.,2.05696243688741E-16,1.));
#1325=DIRECTION('ref_axis',(1.,0.,0.));
#1326=DIRECTION('',(-0.995049960034543,-1.02981143200932E-16,0.099375937908799));
#1327=DIRECTION('center_axis',(0.,2.05696243688741E-16,1.));
#1328=DIRECTION('ref_axis',(1.,0.,0.));
#1329=DIRECTION('center_axis',(0.,2.05696243688741E-16,1.));
#1330=DIRECTION('ref_axis',(1.,0.,0.));
#1331=DIRECTION('center_axis',(0.,2.09076847584664E-16,1.));
#1332=DIRECTION('ref_axis',(1.,0.,0.));
#1333=DIRECTION('',(0.,2.09076847584664E-16,1.));
#1334=DIRECTION('center_axis',(0.,2.09076847584664E-16,1.));
#1335=DIRECTION('ref_axis',(1.,0.,0.));
#1336=DIRECTION('center_axis',(0.,2.41137148685762E-16,1.));
#1337=DIRECTION('ref_axis',(1.,0.,0.));
#1338=DIRECTION('',(0.,2.09076847584664E-16,1.));
#1339=DIRECTION('center_axis',(0.,2.09076847584664E-16,1.));
#1340=DIRECTION('ref_axis',(1.,0.,0.));
#1341=DIRECTION('center_axis',(0.,5.04568165027529E-16,1.));
#1342=DIRECTION('ref_axis',(1.,0.,0.));
#1343=DIRECTION('',(0.,2.09076847584664E-16,1.));
#1344=DIRECTION('center_axis',(0.,-3.53027148181252E-16,-1.));
#1345=DIRECTION('ref_axis',(1.,0.,0.));
#1346=DIRECTION('center_axis',(1.,0.,0.));
#1347=DIRECTION('ref_axis',(0.,0.,-1.));
#1348=DIRECTION('',(0.,1.,-2.41137148685762E-16));
#1349=DIRECTION('',(0.,2.2408537984338E-16,1.));
#1350=DIRECTION('',(0.,1.,-3.53027148181252E-16));
#1351=DIRECTION('',(0.,1.83464640519122E-16,1.));
#1352=DIRECTION('',(0.,1.,7.83169880938176E-17));
#1353=DIRECTION('',(0.,-1.35946431373238E-16,-1.));
#1354=DIRECTION('center_axis',(0.,1.35946431373238E-16,1.));
#1355=DIRECTION('ref_axis',(1.,0.,0.));
#1356=DIRECTION('center_axis',(0.,2.41137148685762E-16,1.));
#1357=DIRECTION('ref_axis',(1.,0.,0.));
#1358=DIRECTION('center_axis',(0.,-7.83169880938176E-17,1.));
#1359=DIRECTION('ref_axis',(1.,0.,0.));
#1360=DIRECTION('',(0.,1.35946431373238E-16,1.));
#1361=DIRECTION('center_axis',(1.,0.,0.));
#1362=DIRECTION('ref_axis',(0.,0.,-1.));
#1363=DIRECTION('',(0.,1.,-2.41137148685762E-16));
#1364=DIRECTION('',(0.,1.35946431373238E-16,1.));
#1365=DIRECTION('',(0.,1.,7.83169880938176E-17));
#1366=DIRECTION('',(0.,-1.83464640519122E-16,-1.));
#1367=DIRECTION('',(0.,1.,-3.53027148181252E-16));
#1368=DIRECTION('',(0.,-2.2408537984338E-16,-1.));
#1369=DIRECTION('center_axis',(1.,0.,0.));
#1370=DIRECTION('ref_axis',(0.,0.,-1.));
#1371=DIRECTION('',(0.,1.,-2.41137148685762E-16));
#1372=DIRECTION('',(0.,-1.,-7.83169880938176E-17));
#1373=DIRECTION('',(0.,-1.83464640519122E-16,-1.));
#1374=DIRECTION('center_axis',(0.,1.35946431373238E-16,1.));
#1375=DIRECTION('ref_axis',(1.,0.,0.));
#1376=DIRECTION('center_axis',(0.,2.41137148685762E-16,1.));
#1377=DIRECTION('ref_axis',(1.,0.,0.));
#1378=DIRECTION('',(0.,-1.35946431373238E-16,-1.));
#1379=DIRECTION('center_axis',(0.,-7.83169880938176E-17,1.));
#1380=DIRECTION('ref_axis',(1.,0.,0.));
#1381=DIRECTION('center_axis',(0.,1.83464640519122E-16,1.));
#1382=DIRECTION('ref_axis',(-1.,1.22464679914735E-16,-2.24679384768462E-32));
#1383=DIRECTION('center_axis',(0.,-2.41137148685762E-16,-1.));
#1384=DIRECTION('ref_axis',(1.,0.,0.));
#1385=DIRECTION('center_axis',(0.,-7.83169880938176E-17,1.));
#1386=DIRECTION('ref_axis',(1.,0.,0.));
#1387=DIRECTION('center_axis',(0.,-4.45026914698369E-16,1.));
#1388=DIRECTION('ref_axis',(1.,0.,0.));
#1389=DIRECTION('center_axis',(0.,-7.83169880938176E-17,1.));
#1390=DIRECTION('ref_axis',(1.,0.,0.));
#1391=DIRECTION('',(0.,1.83464640519122E-16,1.));
#1392=DIRECTION('center_axis',(0.,1.83464640519122E-16,1.));
#1393=DIRECTION('ref_axis',(-0.999994882998597,-0.00319905870866629,5.86914155985026E-19));
#1394=DIRECTION('center_axis',(1.,0.,0.));
#1395=DIRECTION('ref_axis',(0.,0.,-1.));
#1396=DIRECTION('',(0.,1.,-2.41137148685762E-16));
#1397=DIRECTION('',(0.,-1.,-7.83169880938176E-17));
#1398=DIRECTION('center_axis',(0.,3.53027148181252E-16,1.));
#1399=DIRECTION('ref_axis',(1.,0.,0.));
#1400=DIRECTION('center_axis',(0.,-3.53027148181252E-16,-1.));
#1401=DIRECTION('ref_axis',(0.707106781186547,-0.707106781186547,1.45613623794398E-15));
#1402=DIRECTION('',(0.,-1.,3.53027148181252E-16));
#1403=DIRECTION('center_axis',(0.,-3.53027148181252E-16,-1.));
#1404=DIRECTION('ref_axis',(0.707106781186547,0.707106781186547,-1.45613623794398E-15));
#1405=DIRECTION('',(1.,0.,0.));
#1406=DIRECTION('center_axis',(0.,-3.53027148181252E-16,-1.));
#1407=DIRECTION('ref_axis',(-0.707106781186547,0.707106781186547,-1.45613623794398E-15));
#1408=DIRECTION('center_axis',(0.,-3.53027148181252E-16,-1.));
#1409=DIRECTION('ref_axis',(-0.707106781186547,-0.707106781186547,1.45613623794398E-15));
#1410=DIRECTION('',(-1.,0.,0.));
#1411=DIRECTION('center_axis',(0.,-7.83169880938176E-17,1.));
#1412=DIRECTION('ref_axis',(1.,0.,0.));
#1413=DIRECTION('center_axis',(0.,-7.83169880938176E-17,1.));
#1414=DIRECTION('ref_axis',(1.,0.,0.));
#1415=DIRECTION('center_axis',(-1.,0.,0.));
#1416=DIRECTION('ref_axis',(0.,0.,1.));
#1417=DIRECTION('',(0.,2.2408537984338E-16,1.));
#1418=DIRECTION('',(0.,1.,-5.04568165027529E-16));
#1419=DIRECTION('',(0.,-2.2408537984338E-16,-1.));
#1420=DIRECTION('center_axis',(0.,2.2408537984338E-16,1.));
#1421=DIRECTION('ref_axis',(0.707106781186547,-0.707106781186547,1.45613623794398E-15));
#1422=DIRECTION('',(0.,-2.2408537984338E-16,-1.));
#1423=DIRECTION('center_axis',(0.,5.04568165027529E-16,1.));
#1424=DIRECTION('ref_axis',(0.707106781186547,-0.707106781186547,1.45613623794398E-15));
#1425=DIRECTION('center_axis',(0.,-1.,2.2408537984338E-16));
#1426=DIRECTION('ref_axis',(0.,-2.2408537984338E-16,-1.));
#1427=DIRECTION('',(0.,2.2408537984338E-16,1.));
#1428=DIRECTION('',(1.,0.,0.));
#1429=DIRECTION('center_axis',(0.,-5.04568165027529E-16,-1.));
#1430=DIRECTION('ref_axis',(-1.,0.,0.));
#1431=DIRECTION('center_axis',(0.,5.04568165027529E-16,1.));
#1432=DIRECTION('ref_axis',(0.707106781186547,0.707106781186547,-1.45613623794398E-15));
#1433=DIRECTION('center_axis',(0.,5.04568165027529E-16,1.));
#1434=DIRECTION('ref_axis',(-0.707106781186547,-0.707106781186547,1.45613623794398E-15));
#1435=DIRECTION('',(0.,-1.,5.04568165027529E-16));
#1436=DIRECTION('center_axis',(0.,5.04568165027529E-16,1.));
#1437=DIRECTION('ref_axis',(-0.707106781186547,0.707106781186547,-1.45613623794398E-15));
#1438=DIRECTION('',(-1.,0.,0.));
#1439=DIRECTION('center_axis',(0.,2.2408537984338E-16,1.));
#1440=DIRECTION('ref_axis',(0.707106781186547,0.707106781186547,-1.45613623794398E-15));
#1441=DIRECTION('',(0.,2.2408537984338E-16,1.));
#1442=DIRECTION('center_axis',(0.,-1.,2.2408537984338E-16));
#1443=DIRECTION('ref_axis',(0.,-2.2408537984338E-16,-1.));
#1444=DIRECTION('',(0.,-2.2408537984338E-16,-1.));
#1445=DIRECTION('center_axis',(0.,-2.41137148685762E-16,-1.));
#1446=DIRECTION('ref_axis',(-1.,0.,0.));
#1447=DIRECTION('center_axis',(0.,2.41137148685762E-16,1.));
#1448=DIRECTION('ref_axis',(-0.707106781186547,0.707106781186547,-2.43952599700901E-16));
#1449=DIRECTION('',(-1.,0.,0.));
#1450=DIRECTION('center_axis',(0.,2.41137148685762E-16,1.));
#1451=DIRECTION('ref_axis',(0.707106781186547,0.707106781186547,-2.43952599700901E-16));
#1452=DIRECTION('',(0.,1.,-2.41137148685762E-16));
#1453=DIRECTION('center_axis',(0.,2.41137148685762E-16,1.));
#1454=DIRECTION('ref_axis',(0.707106781186547,-0.707106781186547,2.43952599700901E-16));
#1455=DIRECTION('',(1.,0.,0.));
#1456=DIRECTION('center_axis',(0.,2.41137148685762E-16,1.));
#1457=DIRECTION('ref_axis',(-0.707106781186547,-0.707106781186547,2.43952599700901E-16));
#1458=DIRECTION('center_axis',(0.,2.52538319099949E-16,1.));
#1459=DIRECTION('ref_axis',(0.707106781186547,-0.707106781186547,2.43952599700901E-16));
#1460=DIRECTION('',(0.,-2.52538319099949E-16,-1.));
#1461=DIRECTION('',(0.,2.52538319099949E-16,1.));
#1462=DIRECTION('center_axis',(0.,-1.,2.52538319099949E-16));
#1463=DIRECTION('ref_axis',(0.,-2.52538319099949E-16,-1.));
#1464=DIRECTION('',(0.,2.52538319099949E-16,1.));
#1465=DIRECTION('center_axis',(-1.,0.,0.));
#1466=DIRECTION('ref_axis',(0.,0.,1.));
#1467=DIRECTION('',(0.,-2.52538319099949E-16,-1.));
#1468=DIRECTION('center_axis',(0.,2.52538319099949E-16,1.));
#1469=DIRECTION('ref_axis',(0.707106781186547,0.707106781186547,-2.43952599700901E-16));
#1470=DIRECTION('',(0.,2.52538319099949E-16,1.));
#1471=DIRECTION('center_axis',(0.,-1.,2.52538319099949E-16));
#1472=DIRECTION('ref_axis',(0.,-2.52538319099949E-16,-1.));
#1473=DIRECTION('',(0.,-2.52538319099949E-16,-1.));
#1474=DIRECTION('center_axis',(0.,2.52538319099949E-16,1.));
#1475=DIRECTION('ref_axis',(-0.707106781186547,0.707106781186547,-2.43952599700901E-16));
#1476=DIRECTION('',(0.,2.52538319099949E-16,1.));
#1477=DIRECTION('center_axis',(0.,-2.78800943053432E-16,-1.));
#1478=DIRECTION('ref_axis',(-0.707106781186547,0.707106781186547,-2.43952599700901E-16));
#1479=DIRECTION('',(0.,-2.52538319099949E-16,-1.));
#1480=DIRECTION('center_axis',(1.,0.,0.));
#1481=DIRECTION('ref_axis',(0.,0.,-1.));
#1482=DIRECTION('',(0.,-2.52538319099949E-16,-1.));
#1483=DIRECTION('',(0.,1.,-2.78800943053432E-16));
#1484=DIRECTION('center_axis',(0.,2.78800943053432E-16,1.));
#1485=DIRECTION('ref_axis',(1.,0.,0.));
#1486=DIRECTION('center_axis',(0.,-2.78800943053432E-16,-1.));
#1487=DIRECTION('ref_axis',(-0.707106781186547,-0.707106781186547,2.43952599700901E-16));
#1488=DIRECTION('',(-1.,0.,0.));
#1489=DIRECTION('center_axis',(0.,-2.78800943053432E-16,-1.));
#1490=DIRECTION('ref_axis',(0.707106781186547,-0.707106781186547,2.43952599700901E-16));
#1491=DIRECTION('',(0.,-1.,2.78800943053432E-16));
#1492=DIRECTION('center_axis',(0.,-2.78800943053432E-16,-1.));
#1493=DIRECTION('ref_axis',(0.707106781186547,0.707106781186547,-2.43952599700901E-16));
#1494=DIRECTION('',(1.,0.,0.));
#1495=DIRECTION('center_axis',(0.,2.52538319099949E-16,1.));
#1496=DIRECTION('ref_axis',(0.707106781186547,-0.707106781186547,2.43952599700901E-16));
#1497=DIRECTION('',(0.,-2.52538319099949E-16,-1.));
#1498=DIRECTION('',(0.,2.52538319099949E-16,1.));
#1499=DIRECTION('center_axis',(0.,-1.,2.52538319099949E-16));
#1500=DIRECTION('ref_axis',(0.,-2.52538319099949E-16,-1.));
#1501=DIRECTION('',(0.,2.52538319099949E-16,1.));
#1502=DIRECTION('center_axis',(0.,2.52538319099949E-16,1.));
#1503=DIRECTION('ref_axis',(-0.707106781186547,-0.707106781186547,2.43952599700901E-16));
#1504=DIRECTION('center_axis',(-1.,0.,0.));
#1505=DIRECTION('ref_axis',(0.,0.,1.));
#1506=DIRECTION('',(0.,-2.52538319099949E-16,-1.));
#1507=DIRECTION('center_axis',(0.,2.52538319099949E-16,1.));
#1508=DIRECTION('ref_axis',(0.707106781186547,0.707106781186547,-2.43952599700901E-16));
#1509=DIRECTION('',(0.,2.52538319099949E-16,1.));
#1510=DIRECTION('center_axis',(0.,-1.,2.52538319099949E-16));
#1511=DIRECTION('ref_axis',(0.,-2.52538319099949E-16,-1.));
#1512=CARTESIAN_POINT('',(0.,0.,0.));
#1513=CARTESIAN_POINT('Origin',(-26.0085,30.,6.));
#1514=CARTESIAN_POINT('',(-22.2875593434925,31.0085,5.99999999999999));
#1515=CARTESIAN_POINT('',(-22.5,30.,7.0085));
#1516=CARTESIAN_POINT('Ctrl Pts',(-22.2875593434925,31.0085,6.));
#1517=CARTESIAN_POINT('Ctrl Pts',(-22.2875593434925,31.0085,6.12829869946717));
#1518=CARTESIAN_POINT('Ctrl Pts',(-22.29949502064,30.9825588587416,6.26398645652202));
#1519=CARTESIAN_POINT('Ctrl Pts',(-22.3409532013921,30.8792253120587,6.51193151682207));
#1520=CARTESIAN_POINT('Ctrl Pts',(-22.3697143289522,30.8018935767265,6.62434080092679));
#1521=CARTESIAN_POINT('Ctrl Pts',(-22.4225283335632,30.6244339708647,6.80180040678857));
#1522=CARTESIAN_POINT('Ctrl Pts',(-22.4502311358878,30.5119895293739,6.87920273746434));
#1523=CARTESIAN_POINT('Ctrl Pts',(-22.489200482007,30.2639069148384,6.98259040567981));
#1524=CARTESIAN_POINT('Ctrl Pts',(-22.5,30.1281640512556,7.0085));
#1525=CARTESIAN_POINT('Ctrl Pts',(-22.5,30.,7.0085));
#1526=CARTESIAN_POINT('',(-22.5,30.,4.99149999999999));
#1527=CARTESIAN_POINT('Ctrl Pts',(-22.5,30.,4.99149999999999));
#1528=CARTESIAN_POINT('Ctrl Pts',(-22.5,30.1281640512556,4.99149999999999));
#1529=CARTESIAN_POINT('Ctrl Pts',(-22.489200482007,30.2639069148384,5.01740959432018));
#1530=CARTESIAN_POINT('Ctrl Pts',(-22.4502311358878,30.5119895293739,5.12079726253565));
#1531=CARTESIAN_POINT('Ctrl Pts',(-22.4225283335632,30.6244339708647,5.19819959321142));
#1532=CARTESIAN_POINT('Ctrl Pts',(-22.3697143289522,30.8018935767265,5.3756591990732));
#1533=CARTESIAN_POINT('Ctrl Pts',(-22.3409532013921,30.8792253120587,5.48806848317792));
#1534=CARTESIAN_POINT('Ctrl Pts',(-22.29949502064,30.9825588587416,5.73601354347797));
#1535=CARTESIAN_POINT('Ctrl Pts',(-22.2875593434925,31.0085,5.87170130053282));
#1536=CARTESIAN_POINT('Ctrl Pts',(-22.2875593434925,31.0085,6.));
#1537=CARTESIAN_POINT('Ctrl Pts',(-22.5,30.,7.0085));
#1538=CARTESIAN_POINT('Ctrl Pts',(-22.5,29.8718359487444,7.0085));
#1539=CARTESIAN_POINT('Ctrl Pts',(-22.489200482007,29.7360930851616,6.98259040567981));
#1540=CARTESIAN_POINT('Ctrl Pts',(-22.4502311358878,29.4880104706261,6.87920273746434));
#1541=CARTESIAN_POINT('Ctrl Pts',(-22.4225283335632,29.3755660291353,6.80180040678857));
#1542=CARTESIAN_POINT('Ctrl Pts',(-22.3697143289522,29.1981064232735,6.62434080092679));
#1543=CARTESIAN_POINT('Ctrl Pts',(-22.3409532013921,29.1207746879413,6.51193151682207));
#1544=CARTESIAN_POINT('Ctrl Pts',(-22.29949502064,29.0174411412584,6.26398645652202));
#1545=CARTESIAN_POINT('Ctrl Pts',(-22.2875593434925,28.9915,6.12829869946717));
#1546=CARTESIAN_POINT('Ctrl Pts',(-22.2875593434925,28.9915,5.87170130053282));
#1547=CARTESIAN_POINT('Ctrl Pts',(-22.29949502064,29.0174411412584,5.73601354347797));
#1548=CARTESIAN_POINT('Ctrl Pts',(-22.3409532013921,29.1207746879413,5.48806848317792));
#1549=CARTESIAN_POINT('Ctrl Pts',(-22.3697143289522,29.1981064232735,5.3756591990732));
#1550=CARTESIAN_POINT('Ctrl Pts',(-22.4225283335632,29.3755660291353,5.19819959321142));
#1551=CARTESIAN_POINT('Ctrl Pts',(-22.4502311358878,29.4880104706261,5.12079726253565));
#1552=CARTESIAN_POINT('Ctrl Pts',(-22.489200482007,29.7360930851616,5.01740959432018));
#1553=CARTESIAN_POINT('Ctrl Pts',(-22.5,29.8718359487444,4.99149999999999));
#1554=CARTESIAN_POINT('Ctrl Pts',(-22.5,30.,4.99149999999999));
#1555=CARTESIAN_POINT('',(-17.5,30.,7.0085));
#1556=CARTESIAN_POINT('',(-26.0085,30.,7.0085));
#1557=CARTESIAN_POINT('',(-17.7124406565075,31.0085,6.));
#1558=CARTESIAN_POINT('Ctrl Pts',(-17.7124406565075,31.0085,6.));
#1559=CARTESIAN_POINT('Ctrl Pts',(-17.7124406565075,31.0085,5.87170130053282));
#1560=CARTESIAN_POINT('Ctrl Pts',(-17.70050497936,30.9825588587416,5.73601354347797));
#1561=CARTESIAN_POINT('Ctrl Pts',(-17.6590467986079,30.8792253120587,5.48806848317792));
#1562=CARTESIAN_POINT('Ctrl Pts',(-17.6302856710478,30.8018935767265,5.3756591990732));
#1563=CARTESIAN_POINT('Ctrl Pts',(-17.5774716664368,30.6244339708647,5.19819959321142));
#1564=CARTESIAN_POINT('Ctrl Pts',(-17.5497688641122,30.5119895293739,5.12079726253565));
#1565=CARTESIAN_POINT('Ctrl Pts',(-17.510799517993,30.2639069148384,5.01740959432018));
#1566=CARTESIAN_POINT('Ctrl Pts',(-17.5,30.1281640512556,4.9915));
#1567=CARTESIAN_POINT('Ctrl Pts',(-17.5,29.8718359487444,4.9915));
#1568=CARTESIAN_POINT('Ctrl Pts',(-17.510799517993,29.7360930851616,5.01740959432018));
#1569=CARTESIAN_POINT('Ctrl Pts',(-17.5497688641122,29.4880104706261,5.12079726253565));
#1570=CARTESIAN_POINT('Ctrl Pts',(-17.5774716664368,29.3755660291353,5.19819959321142));
#1571=CARTESIAN_POINT('Ctrl Pts',(-17.6302856710478,29.1981064232735,5.3756591990732));
#1572=CARTESIAN_POINT('Ctrl Pts',(-17.6590467986079,29.1207746879413,5.48806848317792));
#1573=CARTESIAN_POINT('Ctrl Pts',(-17.70050497936,29.0174411412584,5.73601354347797));
#1574=CARTESIAN_POINT('Ctrl Pts',(-17.7124406565075,28.9915,5.87170130053282));
#1575=CARTESIAN_POINT('Ctrl Pts',(-17.7124406565075,28.9915,6.12829869946717));
#1576=CARTESIAN_POINT('Ctrl Pts',(-17.70050497936,29.0174411412584,6.26398645652202));
#1577=CARTESIAN_POINT('Ctrl Pts',(-17.6590467986079,29.1207746879413,6.51193151682207));
#1578=CARTESIAN_POINT('Ctrl Pts',(-17.6302856710478,29.1981064232735,6.62434080092679));
#1579=CARTESIAN_POINT('Ctrl Pts',(-17.5774716664368,29.3755660291353,6.80180040678858));
#1580=CARTESIAN_POINT('Ctrl Pts',(-17.5497688641122,29.4880104706261,6.87920273746434));
#1581=CARTESIAN_POINT('Ctrl Pts',(-17.510799517993,29.7360930851616,6.98259040567981));
#1582=CARTESIAN_POINT('Ctrl Pts',(-17.5,29.8718359487444,7.0085));
#1583=CARTESIAN_POINT('Ctrl Pts',(-17.5,30.,7.0085));
#1584=CARTESIAN_POINT('Ctrl Pts',(-17.5,30.,7.0085));
#1585=CARTESIAN_POINT('Ctrl Pts',(-17.5,30.1281640512556,7.0085));
#1586=CARTESIAN_POINT('Ctrl Pts',(-17.510799517993,30.2639069148384,6.98259040567981));
#1587=CARTESIAN_POINT('Ctrl Pts',(-17.5497688641122,30.5119895293739,6.87920273746434));
#1588=CARTESIAN_POINT('Ctrl Pts',(-17.5774716664368,30.6244339708647,6.80180040678858));
#1589=CARTESIAN_POINT('Ctrl Pts',(-17.6302856710478,30.8018935767265,6.62434080092679));
#1590=CARTESIAN_POINT('Ctrl Pts',(-17.6590467986079,30.8792253120587,6.51193151682207));
#1591=CARTESIAN_POINT('Ctrl Pts',(-17.70050497936,30.9825588587416,6.26398645652202));
#1592=CARTESIAN_POINT('Ctrl Pts',(-17.7124406565075,31.0085,6.12829869946717));
#1593=CARTESIAN_POINT('Ctrl Pts',(-17.7124406565075,31.0085,6.));
#1594=CARTESIAN_POINT('Origin',(-20.,30.,30.0085));
#1595=CARTESIAN_POINT('',(-21.5085,30.,9.9915));
#1596=CARTESIAN_POINT('Origin',(-20.,30.,9.9915));
#1597=CARTESIAN_POINT('',(-21.5085,30.,30.));
#1598=CARTESIAN_POINT('',(-21.5085,30.,30.0085));
#1599=CARTESIAN_POINT('Origin',(-20.,30.,30.));
#1600=CARTESIAN_POINT('Origin',(-20.,30.,9.9915));
#1601=CARTESIAN_POINT('Origin',(-20.,30.,0.799999999999997));
#1602=CARTESIAN_POINT('',(-23.,30.,0.799999999999997));
#1603=CARTESIAN_POINT('Origin',(-20.,30.,0.799999999999997));
#1604=CARTESIAN_POINT('',(-22.5,30.,0.799999999999997));
#1605=CARTESIAN_POINT('Origin',(-20.,30.,0.799999999999997));
#1606=CARTESIAN_POINT('Origin',(-20.,30.,0.749999999999998));
#1607=CARTESIAN_POINT('',(-24.,30.,0.699999999999998));
#1608=CARTESIAN_POINT('',(-23.5,30.,0.749999999999998));
#1609=CARTESIAN_POINT('Origin',(-20.,30.,0.699999999999998));
#1610=CARTESIAN_POINT('Origin',(-20.,30.,-2.20464049306169E-15));
#1611=CARTESIAN_POINT('',(-24.,30.,0.0999999999999978));
#1612=CARTESIAN_POINT('',(-24.,30.,-2.20464049306169E-15));
#1613=CARTESIAN_POINT('Origin',(-20.,30.,0.0999999999999978));
#1614=CARTESIAN_POINT('Origin',(-20.,30.,0.0499999999999978));
#1615=CARTESIAN_POINT('',(-23.,30.,-2.20464049306169E-15));
#1616=CARTESIAN_POINT('',(-23.5,30.,0.0499999999999978));
#1617=CARTESIAN_POINT('Origin',(-20.,30.,-2.20464049306169E-15));
#1618=CARTESIAN_POINT('Origin',(-20.,30.,-3.08944772869949E-15));
#1619=CARTESIAN_POINT('',(-22.5,30.,30.));
#1620=CARTESIAN_POINT('Origin',(-20.,30.,30.));
#1621=CARTESIAN_POINT('',(-22.5,30.,-3.08944772869949E-15));
#1622=CARTESIAN_POINT('',(-22.5,30.,-3.08944772869949E-15));
#1623=CARTESIAN_POINT('Origin',(-20.,30.,30.));
#1624=CARTESIAN_POINT('Origin',(-20.,30.,-3.08944772869949E-15));
#1625=CARTESIAN_POINT('Origin',(-17.0069996712276,4.7998125964569,-0.000223403915837342));
#1626=CARTESIAN_POINT('',(-16.0093328949701,3.06641679527586,1.99551577200678));
#1627=CARTESIAN_POINT('',(-15.0069996712276,4.7998125964569,1.99551577200678));
#1628=CARTESIAN_POINT('Origin',(-17.0069996712276,4.7998125964569,1.99551577200678));
#1629=CARTESIAN_POINT('',(-15.0069996712276,4.7998125964569,28.0044842279932));
#1630=CARTESIAN_POINT('',(-15.0069996712276,4.7998125964569,-0.000223403915837342));
#1631=CARTESIAN_POINT('',(-16.0093328949701,3.06641679527587,28.0044842279932));
#1632=CARTESIAN_POINT('Origin',(-17.0069996712276,4.7998125964569,28.0044842279932));
#1633=CARTESIAN_POINT('',(-16.0093328949701,3.06641679527586,-0.000223403915837107));
#1634=CARTESIAN_POINT('Origin',(-15.0069996712276,10.,14.9419997196374));
#1635=CARTESIAN_POINT('',(-15.0069996712276,4.80072890042471,1.99551577200678));
#1636=CARTESIAN_POINT('',(-15.0069996712276,11.,1.99551577200678));
#1637=CARTESIAN_POINT('',(-15.0069996712276,4.80072890042472,28.0044842279932));
#1638=CARTESIAN_POINT('',(-15.0069996712276,4.80072890042471,-0.0087234039158383));
#1639=CARTESIAN_POINT('',(-15.0069996712276,10.5,28.0044842279932));
#1640=CARTESIAN_POINT('Origin',(-17.0403319607614,15.2192303165802,-0.00022340391583775));
#1641=CARTESIAN_POINT('',(-15.0403672444847,15.2311103200391,1.99551577200678));
#1642=CARTESIAN_POINT('',(-16.0537759476819,16.9589737554403,1.99551577200677));
#1643=CARTESIAN_POINT('Origin',(-17.0403319607614,15.2192303165802,1.99551577200678));
#1644=CARTESIAN_POINT('',(-16.0537759476819,16.9589737554403,28.0044842279932));
#1645=CARTESIAN_POINT('',(-16.0537759476819,16.9589737554403,-0.000223403915837986));
#1646=CARTESIAN_POINT('',(-15.0403672444847,15.2311103200391,28.0044842279932));
#1647=CARTESIAN_POINT('Origin',(-17.0403319607614,15.2192303165802,28.0044842279932));
#1648=CARTESIAN_POINT('',(-15.0403672444847,15.2311103200391,-0.000223403915837483));
#1649=CARTESIAN_POINT('Origin',(-22.0091793766698,19.7960807587711,59.9486827743133));
#1650=CARTESIAN_POINT('',(-21.6073435013359,17.8368646070168,28.0044842279932));
#1651=CARTESIAN_POINT('',(-24.0085,19.7438235936323,28.0044842279932));
#1652=CARTESIAN_POINT('Origin',(-22.0091793766698,19.7960807587711,28.0044842279932));
#1653=CARTESIAN_POINT('',(-21.6073435013359,17.8368646070168,1.99551577200678));
#1654=CARTESIAN_POINT('',(-21.6073435013359,17.8368646070168,59.9486827743133));
#1655=CARTESIAN_POINT('',(-24.0085,19.7438235936323,1.99551577200678));
#1656=CARTESIAN_POINT('Origin',(-22.0091793766698,19.7960807587711,1.99551577200678));
#1657=CARTESIAN_POINT('',(-24.0085,19.7438235936323,59.9486827743133));
#1658=CARTESIAN_POINT('Origin',(-22.5,12.,1.99551577200678));
#1659=CARTESIAN_POINT('Origin',(-20.,10.,1.99551577200678));
#1660=CARTESIAN_POINT('Origin',(-20.,10.,1.99551577200678));
#1661=CARTESIAN_POINT('',(-21.6073435013359,2.16313539298315,1.99551577200678));
#1662=CARTESIAN_POINT('Origin',(-20.,10.,1.99551577200678));
#1663=CARTESIAN_POINT('',(-24.0085,0.256176406367667,1.99551577200678));
#1664=CARTESIAN_POINT('Origin',(-22.0091793766698,0.203919241228939,1.99551577200678));
#1665=CARTESIAN_POINT('',(-22.00025,3.04346219226329E-15,1.99551577200678));
#1666=CARTESIAN_POINT('Origin',(-22.00025,7.99975,1.99551577200678));
#1667=CARTESIAN_POINT('',(-17.99975,3.04346219226329E-15,1.99551577200678));
#1668=CARTESIAN_POINT('',(-21.25,2.66453525910038E-15,1.99551577200678));
#1669=CARTESIAN_POINT('',(-10.,7.99975,1.99551577200678));
#1670=CARTESIAN_POINT('Origin',(-17.99975,7.99975,1.99551577200678));
#1671=CARTESIAN_POINT('',(-10.,12.00025,1.99551577200678));
#1672=CARTESIAN_POINT('',(-10.,11.,1.99551577200678));
#1673=CARTESIAN_POINT('',(-17.99975,20.,1.99551577200677));
#1674=CARTESIAN_POINT('Origin',(-17.99975,12.00025,1.99551577200678));
#1675=CARTESIAN_POINT('',(-22.00025,20.,1.99551577200677));
#1676=CARTESIAN_POINT('',(-21.25,20.,1.99551577200677));
#1677=CARTESIAN_POINT('Origin',(-22.00025,12.00025,1.99551577200678));
#1678=CARTESIAN_POINT('',(-22.7085,9.99999999999995,1.99551577200678));
#1679=CARTESIAN_POINT('Origin',(-19.9999999999999,9.99999999999995,1.99551577200678));
#1680=CARTESIAN_POINT('Origin',(-20.,10.,-0.000223403915838049));
#1681=CARTESIAN_POINT('Origin',(-20.,10.,28.0044842279932));
#1682=CARTESIAN_POINT('Origin',(-22.0091793766698,0.203919241228947,59.9486827743133));
#1683=CARTESIAN_POINT('',(-21.6073435013359,2.16313539298315,28.0044842279932));
#1684=CARTESIAN_POINT('',(-21.6073435013359,2.16313539298316,59.9486827743133));
#1685=CARTESIAN_POINT('',(-24.0085,0.256176406367672,28.0044842279932));
#1686=CARTESIAN_POINT('Origin',(-22.0091793766698,0.203919241228943,28.0044842279932));
#1687=CARTESIAN_POINT('',(-24.0085,0.25617640636768,59.9486827743133));
#1688=CARTESIAN_POINT('Origin',(-21.5,11.,28.0044842279932));
#1689=CARTESIAN_POINT('',(-22.00025,20.,28.0044842279932));
#1690=CARTESIAN_POINT('Origin',(-22.00025,12.00025,28.0044842279932));
#1691=CARTESIAN_POINT('',(-17.99975,20.,28.0044842279932));
#1692=CARTESIAN_POINT('',(-20.75,20.,28.0044842279932));
#1693=CARTESIAN_POINT('',(-10.,12.00025,28.0044842279932));
#1694=CARTESIAN_POINT('Origin',(-17.99975,12.00025,28.0044842279932));
#1695=CARTESIAN_POINT('',(-10.,7.99975000000001,28.0044842279932));
#1696=CARTESIAN_POINT('',(-10.,10.5,28.0044842279932));
#1697=CARTESIAN_POINT('',(-17.99975,7.86972095106388E-15,28.0044842279932));
#1698=CARTESIAN_POINT('Origin',(-17.99975,7.99975000000001,28.0044842279932));
#1699=CARTESIAN_POINT('',(-22.00025,7.86972095106388E-15,28.0044842279932));
#1700=CARTESIAN_POINT('',(-20.75,7.99360577730113E-15,28.0044842279932));
#1701=CARTESIAN_POINT('Origin',(-22.00025,7.99975000000001,28.0044842279932));
#1702=CARTESIAN_POINT('Origin',(-20.,10.,28.0044842279932));
#1703=CARTESIAN_POINT('Origin',(-20.,10.,28.0044842279932));
#1704=CARTESIAN_POINT('',(-22.7085,9.99999999999995,28.0044842279932));
#1705=CARTESIAN_POINT('Origin',(-19.9999999999999,9.99999999999995,28.0044842279932));
#1706=CARTESIAN_POINT('Origin',(-20.,10.,-0.000223403915838049));
#1707=CARTESIAN_POINT('Origin',(-20.,10.,28.9915));
#1708=CARTESIAN_POINT('',(-24.0085,10.,29.0915825242718));
#1709=CARTESIAN_POINT('Origin',(-20.,10.,29.0915825242718));
#1710=CARTESIAN_POINT('',(-24.0085,10.,29.9955157720068));
#1711=CARTESIAN_POINT('',(-24.0085,10.,28.9915));
#1712=CARTESIAN_POINT('Origin',(-20.,10.,29.9955157720068));
#1713=CARTESIAN_POINT('Origin',(-20.,10.,29.0415412621359));
#1714=CARTESIAN_POINT('',(-23.006375,10.,28.9915));
#1715=CARTESIAN_POINT('Origin',(-20.,10.,28.9915));
#1716=CARTESIAN_POINT('',(-23.5074375,10.,29.0415412621359));
#1717=CARTESIAN_POINT('Origin',(-20.,10.,28.9915));
#1718=CARTESIAN_POINT('',(-22.7085,9.99999999999995,28.9915));
#1719=CARTESIAN_POINT('Origin',(-19.9999999999999,9.99999999999995,28.9915));
#1720=CARTESIAN_POINT('Origin',(-19.9999999999999,9.99999999999994,-7.0085));
#1721=CARTESIAN_POINT('',(-22.7085,9.99999999999994,-7.0085));
#1722=CARTESIAN_POINT('Origin',(-19.9999999999999,9.99999999999994,-7.0085));
#1723=CARTESIAN_POINT('',(-22.7085,9.99999999999995,0.0044842279932098));
#1724=CARTESIAN_POINT('Origin',(-19.9999999999999,9.99999999999995,0.0044842279932098));
#1725=CARTESIAN_POINT('',(-22.7085,9.99999999999994,-7.0085));
#1726=CARTESIAN_POINT('Origin',(-19.9999999999999,9.99999999999994,-7.0085));
#1727=CARTESIAN_POINT('',(-22.7085,9.99999999999995,-0.0517279652546279));
#1728=CARTESIAN_POINT('Origin',(-19.9999999999999,9.99999999999995,-0.0517279652546279));
#1729=CARTESIAN_POINT('',(-22.7085,9.99999999999995,-0.00872340391583304));
#1730=CARTESIAN_POINT('',(-22.7085,9.99999999999994,-7.0085));
#1731=CARTESIAN_POINT('Origin',(-19.9999999999999,9.99999999999995,-0.00872340391583304));
#1732=CARTESIAN_POINT('Origin',(-24.0085,10.,21.4169630731771));
#1733=CARTESIAN_POINT('',(-24.0085,0.256176406367667,0.00448422799321191));
#1734=CARTESIAN_POINT('',(-24.0085,3.07671120420359,0.00448422799321171));
#1735=CARTESIAN_POINT('',(-24.0085,10.5,0.0044842279932098));
#1736=CARTESIAN_POINT('',(-24.0085,0.256176406367666,-0.00872340391583037));
#1737=CARTESIAN_POINT('',(-24.0085,0.25617640636768,59.9486827743133));
#1738=CARTESIAN_POINT('',(-24.0085,4.0088064628156,-0.0087234039158437));
#1739=CARTESIAN_POINT('',(-24.0085,10.,-0.00872340391583326));
#1740=CARTESIAN_POINT('',(-24.0085,4.0088064628156,-0.000223403915838218));
#1741=CARTESIAN_POINT('',(-24.0085,4.0088064628156,-0.00872340391583993));
#1742=CARTESIAN_POINT('',(-24.0085,3.07671120420359,-0.000223403915840068));
#1743=CARTESIAN_POINT('',(-24.0085,10.,-0.00022340391583775));
#1744=CARTESIAN_POINT('',(-24.0085,3.07671120420359,-0.000223403915838585));
#1745=CARTESIAN_POINT('Origin',(-20.,10.,-0.000223403915838049));
#1746=CARTESIAN_POINT('',(-15.0069996712276,3.74940421104685,0.00448422799321155));
#1747=CARTESIAN_POINT('Origin',(-20.,10.,0.00448422799320994));
#1748=CARTESIAN_POINT('',(-15.0069996712276,3.74940421104685,-0.000223403915838239));
#1749=CARTESIAN_POINT('Origin',(-20.,10.,-0.000223403915838049));
#1750=CARTESIAN_POINT('',(-15.0069996712276,3.74940421104685,-0.0002234039158369));
#1751=CARTESIAN_POINT('Origin',(-24.0085,10.,21.4169630731771));
#1752=CARTESIAN_POINT('',(-24.0085,16.9232887957964,0.00448422799320837));
#1753=CARTESIAN_POINT('',(-24.0085,19.7438235936323,0.0044842279932098));
#1754=CARTESIAN_POINT('',(-24.0085,10.5,0.0044842279932098));
#1755=CARTESIAN_POINT('',(-24.0085,16.9232887957964,-0.000223403915838984));
#1756=CARTESIAN_POINT('',(-24.0085,16.9232887957964,-0.000223403915840467));
#1757=CARTESIAN_POINT('',(-24.0085,15.9911935371844,-0.000223403915837282));
#1758=CARTESIAN_POINT('',(-24.0085,10.,-0.00022340391583775));
#1759=CARTESIAN_POINT('',(-24.0085,15.9911935371844,-0.00872340391583837));
#1760=CARTESIAN_POINT('',(-24.0085,15.9911935371844,-0.00872340391584213));
#1761=CARTESIAN_POINT('',(-24.0085,19.7438235936323,-0.00872340391583037));
#1762=CARTESIAN_POINT('',(-24.0085,10.,-0.00872340391583326));
#1763=CARTESIAN_POINT('',(-24.0085,19.7438235936323,59.9486827743133));
#1764=CARTESIAN_POINT('Origin',(-15.0069996712276,10.,14.9419997196374));
#1765=CARTESIAN_POINT('',(-15.0069996712276,4.80072890042471,0.00448422799321129));
#1766=CARTESIAN_POINT('',(-15.0069996712276,10.5,0.0044842279932098));
#1767=CARTESIAN_POINT('',(-15.0069996712276,4.80072890042471,-0.000223403915838157));
#1768=CARTESIAN_POINT('',(-15.0069996712276,10.,-0.00022340391583775));
#1769=CARTESIAN_POINT('',(-15.0069996712276,4.80072890042471,-0.0087234039158383));
#1770=CARTESIAN_POINT('Origin',(-20.,10.,-0.000223403915838049));
#1771=CARTESIAN_POINT('',(-15.0069996712276,16.2505957889531,0.00448422799320853));
#1772=CARTESIAN_POINT('Origin',(-20.,10.,0.00448422799320994));
#1773=CARTESIAN_POINT('',(-15.0069996712276,16.2505957889531,-0.00022340391583726));
#1774=CARTESIAN_POINT('',(-15.0069996712276,16.2505957889531,-0.0002234039158386));
#1775=CARTESIAN_POINT('Origin',(-20.,10.,-0.000223403915838049));
#1776=CARTESIAN_POINT('Origin',(-20.,10.,-0.00872340391583975));
#1777=CARTESIAN_POINT('',(-15.0069996712276,15.1992710995753,0.00448422799320879));
#1778=CARTESIAN_POINT('Origin',(-20.,10.,0.00448422799320998));
#1779=CARTESIAN_POINT('Origin',(-20.,10.,-0.00022340391583805));
#1780=CARTESIAN_POINT('Origin',(-20.,10.,-0.00872340391583975));
#1781=CARTESIAN_POINT('',(-15.0069996712276,15.1992710995753,-0.000223403915837343));
#1782=CARTESIAN_POINT('Origin',(-20.,10.,-0.00022340391583805));
#1783=CARTESIAN_POINT('',(-15.0069996712276,15.1992710995753,-0.00872340391584021));
#1784=CARTESIAN_POINT('Origin',(-20.,10.,-0.00872340391583975));
#1785=CARTESIAN_POINT('Origin',(-15.0069996712276,10.,14.9419997196374));
#1786=CARTESIAN_POINT('',(-15.0069996712276,10.5,0.0044842279932098));
#1787=CARTESIAN_POINT('',(-15.0069996712276,10.,-0.00022340391583775));
#1788=CARTESIAN_POINT('Origin',(-14.,10.,-0.00872340391583326));
#1789=CARTESIAN_POINT('',(-10.,7.99975,-0.00872340391583037));
#1790=CARTESIAN_POINT('',(-17.99975,2.55163341672996E-15,-0.00872340391583037));
#1791=CARTESIAN_POINT('Origin',(-17.99975,7.99975,-0.00872340391583037));
#1792=CARTESIAN_POINT('',(-10.,12.00025,-0.00872340391583037));
#1793=CARTESIAN_POINT('',(-10.,10.,-0.00872340391583037));
#1794=CARTESIAN_POINT('',(-17.99975,20.,-0.00872340391583037));
#1795=CARTESIAN_POINT('Origin',(-17.99975,12.00025,-0.00872340391583037));
#1796=CARTESIAN_POINT('',(-22.00025,20.,-0.00872340391583037));
#1797=CARTESIAN_POINT('',(-17.,20.,-0.00872340391583214));
#1798=CARTESIAN_POINT('Origin',(-22.00025,12.00025,-0.00872340391583037));
#1799=CARTESIAN_POINT('',(-22.00025,2.55163341672996E-15,-0.00872340391583037));
#1800=CARTESIAN_POINT('Origin',(-22.00025,7.99975,-0.00872340391583037));
#1801=CARTESIAN_POINT('',(-17.,2.66453525910038E-15,-0.00872340391582861));
#1802=CARTESIAN_POINT('Origin',(-20.,10.,-0.000223403915838049));
#1803=CARTESIAN_POINT('Origin',(-20.,10.,-0.000223403915838049));
#1804=CARTESIAN_POINT('Origin',(-10.,10.,59.9486827743133));
#1805=CARTESIAN_POINT('',(-10.,7.99975,-0.0517279652546279));
#1806=CARTESIAN_POINT('',(-10.,7.99975000000002,59.9486827743133));
#1807=CARTESIAN_POINT('',(-10.,12.00025,-0.0517279652546279));
#1808=CARTESIAN_POINT('',(-10.,10.5,-0.0517279652546279));
#1809=CARTESIAN_POINT('',(-10.,12.00025,59.9486827743133));
#1810=CARTESIAN_POINT('Origin',(-17.99975,7.99975000000002,59.9486827743133));
#1811=CARTESIAN_POINT('',(-17.99975,2.54199672326736E-15,-0.0517279652546208));
#1812=CARTESIAN_POINT('',(-17.99975,1.59872115546023E-14,59.9486827743133));
#1813=CARTESIAN_POINT('Origin',(-17.99975,7.99975,-0.0517279652546279));
#1814=CARTESIAN_POINT('Origin',(-20.,1.59872115546023E-14,59.9486827743133));
#1815=CARTESIAN_POINT('',(-22.00025,2.54199672326736E-15,-0.0517279652546208));
#1816=CARTESIAN_POINT('',(-22.00025,1.59872115546023E-14,59.9486827743133));
#1817=CARTESIAN_POINT('',(-20.75,2.66453525910038E-15,-0.0517279652546215));
#1818=CARTESIAN_POINT('Origin',(-21.5,11.,-0.0517279652546279));
#1819=CARTESIAN_POINT('',(-17.99975,20.,-0.051727965254635));
#1820=CARTESIAN_POINT('Origin',(-17.99975,12.00025,-0.0517279652546279));
#1821=CARTESIAN_POINT('',(-30.,7.99975,-0.0517279652546279));
#1822=CARTESIAN_POINT('Origin',(-22.00025,7.99975,-0.0517279652546279));
#1823=CARTESIAN_POINT('',(-30.,12.00025,-0.0517279652546279));
#1824=CARTESIAN_POINT('',(-30.,10.5,-0.0517279652546279));
#1825=CARTESIAN_POINT('',(-22.00025,20.,-0.051727965254635));
#1826=CARTESIAN_POINT('Origin',(-22.00025,12.00025,-0.0517279652546279));
#1827=CARTESIAN_POINT('',(-20.75,20.,-0.0517279652546337));
#1828=CARTESIAN_POINT('Origin',(-17.99975,12.00025,59.9486827743133));
#1829=CARTESIAN_POINT('',(-17.99975,20.,59.9486827743133));
#1830=CARTESIAN_POINT('Origin',(-20.,20.,59.9486827743133));
#1831=CARTESIAN_POINT('',(-22.00025,20.,59.9486827743133));
#1832=CARTESIAN_POINT('Origin',(-21.5,11.,0.0044842279932098));
#1833=CARTESIAN_POINT('',(-22.00025,20.,0.00448422799320802));
#1834=CARTESIAN_POINT('Origin',(-22.00025,12.00025,0.0044842279932098));
#1835=CARTESIAN_POINT('',(-17.99975,20.,0.00448422799320802));
#1836=CARTESIAN_POINT('',(-20.75,20.,0.00448422799320783));
#1837=CARTESIAN_POINT('',(-10.,12.00025,0.0044842279932098));
#1838=CARTESIAN_POINT('Origin',(-17.99975,12.00025,0.0044842279932098));
#1839=CARTESIAN_POINT('',(-10.,7.99975,0.00448422799321069));
#1840=CARTESIAN_POINT('',(-10.,10.5,0.0044842279932098));
#1841=CARTESIAN_POINT('',(-17.99975,2.54065043286312E-15,0.00448422799321246));
#1842=CARTESIAN_POINT('Origin',(-17.99975,7.99975,0.00448422799321069));
#1843=CARTESIAN_POINT('',(-22.00025,2.54065043286312E-15,0.00448422799321246));
#1844=CARTESIAN_POINT('',(-20.75,2.66453525910038E-15,0.00448422799321246));
#1845=CARTESIAN_POINT('Origin',(-22.00025,7.99975,0.00448422799321069));
#1846=CARTESIAN_POINT('Origin',(-17.99975,7.99975,4.01204731602036));
#1847=CARTESIAN_POINT('',(-17.99975,3.5527136788005E-15,4.01204731602036));
#1848=CARTESIAN_POINT('',(-10.,7.99975,4.01204731602036));
#1849=CARTESIAN_POINT('Origin',(-20.,3.5527136788005E-15,4.01204731602036));
#1850=CARTESIAN_POINT('',(-22.00025,3.5527136788005E-15,4.01204731602036));
#1851=CARTESIAN_POINT('Origin',(-10.,10.,4.01204731602036));
#1852=CARTESIAN_POINT('',(-10.,12.00025,4.01204731602036));
#1853=CARTESIAN_POINT('Origin',(-17.99975,12.00025,4.01204731602036));
#1854=CARTESIAN_POINT('',(-17.99975,20.,4.01204731602036));
#1855=CARTESIAN_POINT('Origin',(-20.,20.,4.01204731602036));
#1856=CARTESIAN_POINT('',(-22.00025,20.,4.01204731602036));
#1857=CARTESIAN_POINT('Origin',(-22.00025,12.00025,32.0120473160204));
#1858=CARTESIAN_POINT('',(-30.,12.00025,29.9955157720068));
#1859=CARTESIAN_POINT('',(-30.,12.00025,32.0120473160204));
#1860=CARTESIAN_POINT('',(-22.00025,20.,29.9955157720068));
#1861=CARTESIAN_POINT('Origin',(-22.00025,12.00025,29.9955157720068));
#1862=CARTESIAN_POINT('',(-22.00025,20.,32.0120473160204));
#1863=CARTESIAN_POINT('Origin',(-30.,10.,32.0120473160204));
#1864=CARTESIAN_POINT('',(-30.,7.99975000000001,29.9955157720068));
#1865=CARTESIAN_POINT('',(-30.,7.99975000000001,32.0120473160204));
#1866=CARTESIAN_POINT('',(-30.,11.,29.9955157720068));
#1867=CARTESIAN_POINT('Origin',(-22.5,12.,29.9955157720068));
#1868=CARTESIAN_POINT('',(-22.00025,8.37253271046404E-15,29.9955157720068));
#1869=CARTESIAN_POINT('Origin',(-22.00025,7.99975000000001,29.9955157720068));
#1870=CARTESIAN_POINT('',(-17.99975,8.37253271046404E-15,29.9955157720068));
#1871=CARTESIAN_POINT('',(-21.25,7.99360577730113E-15,29.9955157720068));
#1872=CARTESIAN_POINT('',(-10.,7.99975000000001,29.9955157720068));
#1873=CARTESIAN_POINT('Origin',(-17.99975,7.99975000000001,29.9955157720068));
#1874=CARTESIAN_POINT('',(-10.,12.00025,29.9955157720068));
#1875=CARTESIAN_POINT('',(-10.,11.,29.9955157720068));
#1876=CARTESIAN_POINT('',(-17.99975,20.,29.9955157720068));
#1877=CARTESIAN_POINT('Origin',(-17.99975,12.00025,29.9955157720068));
#1878=CARTESIAN_POINT('',(-21.25,20.,29.9955157720068));
#1879=CARTESIAN_POINT('Origin',(-17.99975,7.99975000000001,32.0120473160204));
#1880=CARTESIAN_POINT('',(-17.99975,8.88178419700125E-15,32.0120473160204));
#1881=CARTESIAN_POINT('',(-10.,7.99975000000001,32.0120473160204));
#1882=CARTESIAN_POINT('Origin',(-20.,8.88178419700125E-15,32.0120473160204));
#1883=CARTESIAN_POINT('',(-22.00025,8.88178419700125E-15,32.0120473160204));
#1884=CARTESIAN_POINT('Origin',(-22.00025,7.99975000000001,32.0120473160204));
#1885=CARTESIAN_POINT('Origin',(-10.,10.,32.0120473160204));
#1886=CARTESIAN_POINT('',(-10.,12.00025,32.0120473160204));
#1887=CARTESIAN_POINT('Origin',(-17.99975,12.00025,32.0120473160204));
#1888=CARTESIAN_POINT('',(-17.99975,20.,32.0120473160204));
#1889=CARTESIAN_POINT('Origin',(-20.,20.,32.0120473160204));
#1890=UNCERTAINTY_MEASURE_WITH_UNIT(LENGTH_MEASURE(0.01),#1894,
'DISTANCE_ACCURACY_VALUE',
'Maximum model space distance between geometric entities at asserted c
onnectivities');
#1891=UNCERTAINTY_MEASURE_WITH_UNIT(LENGTH_MEASURE(0.01),#1894,
'DISTANCE_ACCURACY_VALUE',
'Maximum model space distance between geometric entities at asserted c
onnectivities');
#1892=(
GEOMETRIC_REPRESENTATION_CONTEXT(3)
GLOBAL_UNCERTAINTY_ASSIGNED_CONTEXT((#1890))
GLOBAL_UNIT_ASSIGNED_CONTEXT((#1894,#1896,#1897))
REPRESENTATION_CONTEXT('','3D')
);
#1893=(
GEOMETRIC_REPRESENTATION_CONTEXT(3)
GLOBAL_UNCERTAINTY_ASSIGNED_CONTEXT((#1891))
GLOBAL_UNIT_ASSIGNED_CONTEXT((#1894,#1896,#1897))
REPRESENTATION_CONTEXT('','3D')
);
#1894=(
LENGTH_UNIT()
NAMED_UNIT(*)
SI_UNIT(.MILLI.,.METRE.)
);
#1895=(
LENGTH_UNIT()
NAMED_UNIT(*)
SI_UNIT($,.METRE.)
);
#1896=(
NAMED_UNIT(*)
PLANE_ANGLE_UNIT()
SI_UNIT($,.RADIAN.)
);
#1897=(
NAMED_UNIT(*)
SI_UNIT($,.STERADIAN.)
SOLID_ANGLE_UNIT()
);
#1898=SHAPE_DEFINITION_REPRESENTATION(#1899,#1900);
#1899=PRODUCT_DEFINITION_SHAPE('',$,#1902);
#1900=SHAPE_REPRESENTATION('',(#1066),#1892);
#1901=PRODUCT_DEFINITION_CONTEXT('part definition',#1906,'design');
#1902=PRODUCT_DEFINITION('Aether-winch-model V0.2.f3d',
'Aether-winch-model V0.2.f3d v1',#1903,#1901);
#1903=PRODUCT_DEFINITION_FORMATION('',$,#1908);
#1904=PRODUCT_RELATED_PRODUCT_CATEGORY('Aether-winch-model V0.2.f3d v1',
'Aether-winch-model V0.2.f3d v1',(#1908));
#1905=APPLICATION_PROTOCOL_DEFINITION('international standard',
'automotive_design',2009,#1906);
#1906=APPLICATION_CONTEXT(
'Core Data for Automotive Mechanical Design Process');
#1907=PRODUCT_CONTEXT('part definition',#1906,'mechanical');
#1908=PRODUCT('Aether-winch-model V0.2.f3d',
'Aether-winch-model V0.2.f3d v1',$,(#1907));
#1909=PRESENTATION_STYLE_ASSIGNMENT((#1911));
#1910=PRESENTATION_STYLE_ASSIGNMENT((#1912));
#1911=SURFACE_STYLE_USAGE(.BOTH.,#1913);
#1912=SURFACE_STYLE_USAGE(.BOTH.,#1914);
#1913=SURFACE_SIDE_STYLE('',(#1915));
#1914=SURFACE_SIDE_STYLE('',(#1916));
#1915=SURFACE_STYLE_FILL_AREA(#1917);
#1916=SURFACE_STYLE_FILL_AREA(#1918);
#1917=FILL_AREA_STYLE('Steel - Satin',(#1919));
#1918=FILL_AREA_STYLE('Opaque(133,205,230)',(#1920));
#1919=FILL_AREA_STYLE_COLOUR('Steel - Satin',#1921);
#1920=FILL_AREA_STYLE_COLOUR('Opaque(133,205,230)',#1922);
#1921=COLOUR_RGB('Steel - Satin',0.627450980392157,0.627450980392157,0.627450980392157);
#1922=COLOUR_RGB('Opaque(133,205,230)',0.52156862745098,0.803921568627451,
0.901960784313726);
ENDSEC;
END-ISO-10303-21;
